<svg width="268" height="63" viewBox="0 0 268 63" fill="none" xmlns="http://www.w3.org/2000/svg">
<rect width="268" height="63" rx="5" fill="url(#paint0_linear_218_141)"/>
<path d="M53.7314 35.4968C53.7314 36.9594 53.2003 38.114 52.138 38.9608C51.0757 39.8076 49.6054 40.2309 47.7271 40.2309C45.9105 40.2309 44.3709 39.923 43.1085 39.3072V36.536C43.8013 36.8439 44.5634 37.1287 45.3947 37.3905C46.2261 37.6368 47.0728 37.7599 47.935 37.7599C48.9203 37.7599 49.6439 37.5675 50.1058 37.1826C50.5676 36.7977 50.7986 36.2897 50.7986 35.6585C50.7986 34.9657 50.506 34.4191 49.921 34.0188C49.336 33.6185 48.4815 33.1798 47.3577 32.7025C46.6802 32.41 46.0336 32.0636 45.4178 31.6633C44.802 31.263 44.2939 30.755 43.8937 30.1391C43.4934 29.5233 43.2932 28.7382 43.2932 27.7836C43.2932 26.3672 43.7859 25.2665 44.7712 24.4813C45.7719 23.6807 47.1036 23.2804 48.7663 23.2804C49.6439 23.2804 50.4599 23.3728 51.2142 23.5575C51.984 23.7423 52.7538 24.004 53.5236 24.3427L52.5767 26.7213C51.8839 26.4288 51.2219 26.1979 50.5907 26.0285C49.9749 25.8592 49.336 25.7745 48.674 25.7745C47.8734 25.7745 47.2653 25.9593 46.8496 26.3287C46.4339 26.6828 46.2261 27.1447 46.2261 27.7143C46.2261 28.1762 46.3415 28.5611 46.5725 28.869C46.8034 29.1769 47.1575 29.4617 47.6348 29.7235C48.1274 29.9852 48.7586 30.2854 49.5284 30.6241C50.406 31.009 51.1604 31.4093 51.7916 31.825C52.4228 32.2406 52.9001 32.741 53.2234 33.326C53.5621 33.9111 53.7314 34.6346 53.7314 35.4968ZM61.6248 40.2309C59.8235 40.2309 58.4072 39.7152 57.3756 38.6837C56.3441 37.6522 55.8284 36.0279 55.8284 33.811C55.8284 32.2714 56.0824 31.0244 56.5905 30.0699C57.1139 29.0999 57.8298 28.3918 58.7382 27.9453C59.6465 27.4834 60.6857 27.2525 61.8558 27.2525C62.6409 27.2525 63.3414 27.3295 63.9573 27.4834C64.5731 27.6374 65.0965 27.8221 65.5276 28.0377L64.6731 30.3239C64.1959 30.1391 63.7186 29.9852 63.2414 29.862C62.7641 29.7235 62.3022 29.6542 61.8558 29.6542C59.8235 29.6542 58.8074 31.0321 58.8074 33.7879C58.8074 35.1273 59.0615 36.1357 59.5695 36.8131C60.093 37.4905 60.8397 37.8292 61.8096 37.8292C62.5024 37.8292 63.1182 37.7446 63.657 37.5752C64.1959 37.4058 64.7116 37.1749 65.2043 36.8824V39.3996C64.727 39.6767 64.2113 39.8845 63.657 40.0231C63.1182 40.1617 62.4408 40.2309 61.6248 40.2309ZM71.0464 26.629C71.0464 27.1216 71.0233 27.6066 70.9771 28.0838C70.9463 28.5457 70.9155 28.8921 70.8847 29.123H71.0695C71.4697 28.4918 71.9932 28.0223 72.6398 27.7143C73.2864 27.4064 74.0023 27.2525 74.7875 27.2525C76.2039 27.2525 77.3124 27.6143 78.1129 28.3379C78.9135 29.0615 79.3138 30.2315 79.3138 31.8481V40H76.404V32.4254C76.404 30.5471 75.6342 29.608 74.0947 29.608C72.9246 29.608 72.1241 29.9775 71.693 30.7165C71.2619 31.4555 71.0464 32.5101 71.0464 33.8803V40H68.1366V22.4491H71.0464V26.629ZM87.9877 27.2525C89.6658 27.2525 90.9898 27.7528 91.9597 28.7535C92.945 29.7543 93.4377 31.1476 93.4377 32.9334V34.4114H85.1703C85.2011 35.5507 85.5167 36.4359 86.1171 37.0671C86.7175 37.683 87.5489 37.9909 88.6112 37.9909C89.4118 37.9909 90.1354 37.9139 90.782 37.7599C91.4286 37.5906 92.0906 37.352 92.768 37.0441V39.3765C92.1522 39.669 91.5133 39.8845 90.8512 40.0231C90.1892 40.1617 89.3964 40.2309 88.4726 40.2309C87.2564 40.2309 86.171 40 85.2165 39.5381C84.2773 39.0609 83.5384 38.345 82.9995 37.3905C82.4761 36.4359 82.2143 35.2505 82.2143 33.8341C82.2143 31.6941 82.7455 30.0622 83.8078 28.9383C84.8701 27.8144 86.2634 27.2525 87.9877 27.2525ZM87.9877 29.4002C87.2025 29.4002 86.5636 29.6542 86.0709 30.1622C85.5937 30.6549 85.3165 31.3939 85.2396 32.3792H90.6203C90.6049 31.517 90.3817 30.8089 89.9506 30.2546C89.5349 29.685 88.8806 29.4002 87.9877 29.4002ZM100.506 40.2309C99.0429 40.2309 97.8652 39.6844 96.9722 38.5913C96.0793 37.4982 95.6328 35.8894 95.6328 33.7648C95.6328 31.6094 96.087 29.9852 96.9953 28.8921C97.9037 27.799 99.0968 27.2525 100.575 27.2525C101.499 27.2525 102.253 27.4295 102.838 27.7836C103.438 28.1377 103.916 28.5688 104.27 29.0769H104.408C104.362 28.8613 104.316 28.5303 104.27 28.0838C104.224 27.6374 104.2 27.2217 104.2 26.8368V22.4491H107.11V40H104.847L104.316 38.3604H104.2C103.846 38.8838 103.377 39.3303 102.792 39.6998C102.207 40.0539 101.445 40.2309 100.506 40.2309ZM101.383 37.8754C102.461 37.8754 103.215 37.5675 103.646 36.9517C104.093 36.3359 104.324 35.4044 104.339 34.1574V33.7879C104.339 32.4485 104.123 31.4247 103.692 30.7165C103.277 29.9929 102.492 29.6311 101.337 29.6311C100.444 29.6311 99.7588 30.0006 99.2816 30.7396C98.8197 31.4632 98.5888 32.487 98.5888 33.811C98.5888 35.135 98.8274 36.1434 99.3047 36.8362C99.7819 37.529 100.475 37.8754 101.383 37.8754ZM121.936 27.4834V40H119.649L119.257 38.3835H119.118C118.703 39.0301 118.141 39.4996 117.432 39.7922C116.74 40.0847 116.001 40.2309 115.215 40.2309C113.814 40.2309 112.714 39.8691 111.913 39.1455C111.128 38.422 110.735 37.2596 110.735 35.6585V27.4834H113.645V35.0811C113.645 36.944 114.415 37.8754 115.954 37.8754C117.124 37.8754 117.925 37.5136 118.356 36.79C118.803 36.051 119.026 34.9887 119.026 33.6031V27.4834H121.936ZM128.554 40H125.644V22.4491H128.554V40ZM137.309 27.2525C138.987 27.2525 140.311 27.7528 141.281 28.7535C142.266 29.7543 142.759 31.1476 142.759 32.9334V34.4114H134.492C134.522 35.5507 134.838 36.4359 135.439 37.0671C136.039 37.683 136.87 37.9909 137.933 37.9909C138.733 37.9909 139.457 37.9139 140.103 37.7599C140.75 37.5906 141.412 37.352 142.089 37.0441V39.3765C141.474 39.669 140.835 39.8845 140.173 40.0231C139.511 40.1617 138.718 40.2309 137.794 40.2309C136.578 40.2309 135.492 40 134.538 39.5381C133.599 39.0609 132.86 38.345 132.321 37.3905C131.797 36.4359 131.536 35.2505 131.536 33.8341C131.536 31.6941 132.067 30.0622 133.129 28.9383C134.191 27.8144 135.585 27.2525 137.309 27.2525ZM137.309 29.4002C136.524 29.4002 135.885 29.6542 135.392 30.1622C134.915 30.6549 134.638 31.3939 134.561 32.3792H139.942C139.926 31.517 139.703 30.8089 139.272 30.2546C138.856 29.685 138.202 29.4002 137.309 29.4002ZM156.888 23.5114C159.028 23.5114 160.583 23.9578 161.553 24.8508C162.538 25.7437 163.031 26.9754 163.031 28.5457C163.031 29.4848 162.831 30.3701 162.43 31.2014C162.03 32.0174 161.353 32.6794 160.398 33.1875C159.459 33.6801 158.181 33.9265 156.565 33.9265H154.925V40H151.969V23.5114H156.888ZM156.703 25.9593H154.925V31.4786H156.265C157.465 31.4786 158.389 31.263 159.036 30.8319C159.698 30.3855 160.029 29.6619 160.029 28.6612C160.029 27.7528 159.759 27.0754 159.221 26.629C158.682 26.1825 157.843 25.9593 156.703 25.9593ZM167.445 22.6569C167.891 22.6569 168.269 22.7724 168.577 23.0033C168.9 23.2188 169.062 23.6114 169.062 24.1811C169.062 24.7507 168.9 25.151 168.577 25.3819C168.269 25.6129 167.891 25.7283 167.445 25.7283C166.999 25.7283 166.614 25.6129 166.29 25.3819C165.982 25.151 165.828 24.7507 165.828 24.1811C165.828 23.6114 165.982 23.2188 166.29 23.0033C166.614 22.7724 166.999 22.6569 167.445 22.6569ZM168.9 27.4834V40H165.99V27.4834H168.9ZM177.678 40.2309C175.877 40.2309 174.46 39.7152 173.429 38.6837C172.397 37.6522 171.881 36.0279 171.881 33.811C171.881 32.2714 172.135 31.0244 172.644 30.0699C173.167 29.0999 173.883 28.3918 174.791 27.9453C175.7 27.4834 176.739 27.2525 177.909 27.2525C178.694 27.2525 179.394 27.3295 180.01 27.4834C180.626 27.6374 181.15 27.8221 181.581 28.0377L180.726 30.3239C180.249 30.1391 179.772 29.9852 179.294 29.862C178.817 29.7235 178.355 29.6542 177.909 29.6542C175.877 29.6542 174.86 31.0321 174.86 33.7879C174.86 35.1273 175.114 36.1357 175.623 36.8131C176.146 37.4905 176.893 37.8292 177.863 37.8292C178.555 37.8292 179.171 37.7446 179.71 37.5752C180.249 37.4058 180.765 37.1749 181.257 36.8824V39.3996C180.78 39.6767 180.264 39.8845 179.71 40.0231C179.171 40.1617 178.494 40.2309 177.678 40.2309ZM187.076 30.7858C187.076 31.186 187.061 31.6094 187.03 32.0559C186.999 32.5024 186.969 32.9257 186.938 33.326H187.007C187.192 33.0489 187.423 32.7333 187.7 32.3792C187.977 32.0251 188.239 31.7095 188.485 31.4324L192.18 27.4834H195.482L190.471 32.8873L195.806 40H192.411L188.531 34.6423L187.076 35.8432V40H184.19V22.4491H187.076V30.7858ZM208.874 27.4834V40H206.588L206.195 38.3835H206.056C205.641 39.0301 205.079 39.4996 204.371 39.7922C203.678 40.0847 202.939 40.2309 202.154 40.2309C200.753 40.2309 199.652 39.8691 198.851 39.1455C198.066 38.422 197.674 37.2596 197.674 35.6585V27.4834H200.583V35.0811C200.583 36.944 201.353 37.8754 202.893 37.8754C204.063 37.8754 204.863 37.5136 205.294 36.79C205.741 36.051 205.964 34.9887 205.964 33.6031V27.4834H208.874ZM219.164 27.2525C220.627 27.2525 221.805 27.799 222.698 28.8921C223.591 29.9698 224.037 31.5786 224.037 33.7186C224.037 35.8586 223.575 37.4828 222.651 38.5913C221.743 39.6844 220.558 40.2309 219.095 40.2309C218.171 40.2309 217.425 40.0616 216.855 39.7229C216.285 39.3842 215.831 38.9916 215.492 38.5451H215.308C215.354 38.8376 215.392 39.1609 215.423 39.515C215.469 39.8537 215.492 40.1694 215.492 40.4619V45.5424H212.583V27.4834H214.938L215.354 29.1461H215.492C215.831 28.6227 216.293 28.1762 216.878 27.8067C217.463 27.4372 218.225 27.2525 219.164 27.2525ZM218.333 29.608C217.301 29.608 216.57 29.9159 216.139 30.5317C215.723 31.1476 215.508 32.079 215.492 33.326V33.6955C215.492 35.0349 215.693 36.0664 216.093 36.79C216.509 37.4982 217.271 37.8523 218.379 37.8523C219.287 37.8523 219.957 37.4828 220.388 36.7438C220.835 35.9895 221.058 34.9657 221.058 33.6724C221.058 32.3792 220.835 31.3785 220.388 30.6703C219.957 29.9621 219.272 29.608 218.333 29.608Z" fill="#131313"/>
<defs>
<linearGradient id="paint0_linear_218_141" x1="216.209" y1="0.730771" x2="210.311" y2="74.0335" gradientUnits="userSpaceOnUse">
<stop stop-color="#6ACB7A"/>
<stop offset="1" stop-color="#5EB797"/>
</linearGradient>
</defs>
</svg>
