<svg width="998" height="266" viewBox="0 0 998 266" fill="none" xmlns="http://www.w3.org/2000/svg">
<g filter="url(#filter0_d_234_1574)">
<rect x="21" y="17" width="224" height="224" rx="16" fill="white"/>
</g>
<path d="M97.36 61H89.74V46.72H97.36V48.56H91.96V52.64H97.04V54.46H91.96V59.14H97.36V61ZM104.149 61.2C103.203 61.2 102.369 61.0067 101.649 60.62C100.943 60.2333 100.389 59.6333 99.9892 58.82C99.6026 57.9933 99.4092 56.9467 99.4092 55.68C99.4092 54.3467 99.6226 53.2667 100.049 52.44C100.476 51.6133 101.056 51.0067 101.789 50.62C102.523 50.22 103.363 50.02 104.309 50.02C104.869 50.02 105.403 50.0867 105.909 50.22C106.429 50.34 106.856 50.48 107.189 50.64L106.529 52.34C106.196 52.2067 105.836 52.0867 105.449 51.98C105.063 51.8733 104.696 51.82 104.349 51.82C103.736 51.82 103.229 51.9667 102.829 52.26C102.443 52.54 102.149 52.9667 101.949 53.54C101.749 54.1 101.649 54.8067 101.649 55.66C101.649 56.4733 101.749 57.16 101.949 57.72C102.149 58.28 102.443 58.7067 102.829 59C103.229 59.28 103.709 59.42 104.269 59.42C104.816 59.42 105.303 59.3533 105.729 59.22C106.169 59.0867 106.576 58.9133 106.949 58.7V60.54C106.576 60.7667 106.169 60.9333 105.729 61.04C105.289 61.1467 104.763 61.2 104.149 61.2ZM118.346 55.6C118.346 56.4933 118.232 57.2867 118.006 57.98C117.779 58.6733 117.452 59.26 117.026 59.74C116.612 60.22 116.106 60.5867 115.506 60.84C114.906 61.08 114.232 61.2 113.486 61.2C112.806 61.2 112.172 61.08 111.586 60.84C110.999 60.5867 110.492 60.22 110.066 59.74C109.639 59.26 109.306 58.6733 109.066 57.98C108.839 57.2867 108.726 56.4867 108.726 55.58C108.726 54.3933 108.919 53.3867 109.306 52.56C109.692 51.7333 110.246 51.1067 110.966 50.68C111.699 50.24 112.566 50.02 113.566 50.02C114.499 50.02 115.326 50.24 116.046 50.68C116.766 51.1067 117.326 51.7333 117.726 52.56C118.139 53.3867 118.346 54.4 118.346 55.6ZM110.966 55.6C110.966 56.4 111.052 57.0933 111.226 57.68C111.412 58.2533 111.692 58.6933 112.066 59C112.452 59.3067 112.939 59.46 113.526 59.46C114.126 59.46 114.612 59.3067 114.986 59C115.372 58.6933 115.652 58.2533 115.826 57.68C116.012 57.0933 116.106 56.4 116.106 55.6C116.106 54.7733 116.012 54.08 115.826 53.52C115.639 52.96 115.359 52.5333 114.986 52.24C114.612 51.9333 114.119 51.78 113.506 51.78C112.612 51.78 111.966 52.1133 111.566 52.78C111.166 53.4467 110.966 54.3867 110.966 55.6ZM129.772 46.72C131.519 46.72 132.792 47.1 133.592 47.86C134.405 48.6067 134.812 49.6533 134.812 51C134.812 51.6 134.719 52.1733 134.532 52.72C134.359 53.2667 134.065 53.76 133.652 54.2C133.252 54.6267 132.712 54.9667 132.032 55.22C131.352 55.46 130.519 55.58 129.532 55.58H128.132V61H125.912V46.72H129.772ZM129.652 48.54H128.132V53.76H129.292C130.012 53.76 130.612 53.6733 131.092 53.5C131.572 53.3133 131.932 53.0267 132.172 52.64C132.425 52.24 132.552 51.72 132.552 51.08C132.552 50.2267 132.319 49.5933 131.852 49.18C131.385 48.7533 130.652 48.54 129.652 48.54ZM146.295 55.6C146.295 56.4933 146.182 57.2867 145.955 57.98C145.728 58.6733 145.402 59.26 144.975 59.74C144.562 60.22 144.055 60.5867 143.455 60.84C142.855 61.08 142.182 61.2 141.435 61.2C140.755 61.2 140.122 61.08 139.535 60.84C138.948 60.5867 138.442 60.22 138.015 59.74C137.588 59.26 137.255 58.6733 137.015 57.98C136.788 57.2867 136.675 56.4867 136.675 55.58C136.675 54.3933 136.868 53.3867 137.255 52.56C137.642 51.7333 138.195 51.1067 138.915 50.68C139.648 50.24 140.515 50.02 141.515 50.02C142.448 50.02 143.275 50.24 143.995 50.68C144.715 51.1067 145.275 51.7333 145.675 52.56C146.088 53.3867 146.295 54.4 146.295 55.6ZM138.915 55.6C138.915 56.4 139.002 57.0933 139.175 57.68C139.362 58.2533 139.642 58.6933 140.015 59C140.402 59.3067 140.888 59.46 141.475 59.46C142.075 59.46 142.562 59.3067 142.935 59C143.322 58.6933 143.602 58.2533 143.775 57.68C143.962 57.0933 144.055 56.4 144.055 55.6C144.055 54.7733 143.962 54.08 143.775 53.52C143.588 52.96 143.308 52.5333 142.935 52.24C142.562 51.9333 142.068 51.78 141.455 51.78C140.562 51.78 139.915 52.1133 139.515 52.78C139.115 53.4467 138.915 54.3867 138.915 55.6ZM150.938 50.22V61H148.758V50.22H150.938ZM149.878 46.12C150.198 46.12 150.478 46.2133 150.718 46.4C150.958 46.5867 151.078 46.9 151.078 47.34C151.078 47.7667 150.958 48.08 150.718 48.28C150.478 48.4667 150.198 48.56 149.878 48.56C149.532 48.56 149.238 48.4667 148.998 48.28C148.758 48.08 148.638 47.7667 148.638 47.34C148.638 46.9 148.758 46.5867 148.998 46.4C149.238 46.2133 149.532 46.12 149.878 46.12ZM159.253 50.02C160.426 50.02 161.326 50.3333 161.953 50.96C162.593 51.5867 162.913 52.5933 162.913 53.98V61H160.753V54.28C160.753 53.44 160.586 52.8133 160.253 52.4C159.933 51.9733 159.433 51.76 158.753 51.76C157.753 51.76 157.066 52.0867 156.693 52.74C156.32 53.3933 156.133 54.3333 156.133 55.56V61H153.973V50.22H155.673L155.973 51.66H156.093C156.32 51.2867 156.593 50.98 156.913 50.74C157.233 50.5 157.593 50.32 157.993 50.2C158.393 50.08 158.813 50.02 159.253 50.02ZM169.707 59.48C169.987 59.48 170.261 59.4533 170.527 59.4C170.794 59.3467 171.027 59.2867 171.227 59.22V60.82C171.001 60.9267 170.701 61.0133 170.327 61.08C169.967 61.16 169.587 61.2 169.187 61.2C168.627 61.2 168.114 61.1 167.647 60.9C167.181 60.7 166.807 60.3533 166.527 59.86C166.247 59.3667 166.107 58.68 166.107 57.8V51.84H164.727V50.88L166.207 50.08L166.947 47.8H168.287V50.22H171.147V51.84H168.287V57.76C168.287 58.3467 168.421 58.78 168.687 59.06C168.954 59.34 169.294 59.48 169.707 59.48ZM180.091 57.96C180.091 58.6667 179.931 59.26 179.611 59.74C179.291 60.22 178.824 60.5867 178.211 60.84C177.598 61.08 176.844 61.2 175.951 61.2C175.244 61.2 174.624 61.14 174.091 61.02C173.571 60.9133 173.091 60.7533 172.651 60.54V58.68C173.118 58.9067 173.651 59.1133 174.251 59.3C174.851 59.4733 175.424 59.56 175.971 59.56C176.678 59.56 177.191 59.4333 177.511 59.18C177.831 58.9267 177.991 58.5867 177.991 58.16C177.991 57.92 177.924 57.7067 177.791 57.52C177.671 57.32 177.438 57.12 177.091 56.92C176.744 56.7067 176.244 56.4667 175.591 56.2C174.951 55.92 174.411 55.6467 173.971 55.38C173.544 55.1 173.211 54.7733 172.971 54.4C172.744 54.0133 172.631 53.52 172.631 52.92C172.631 51.9867 172.991 51.2733 173.711 50.78C174.431 50.2733 175.371 50.02 176.531 50.02C177.171 50.02 177.764 50.0867 178.311 50.22C178.858 50.34 179.391 50.5267 179.911 50.78L179.251 52.4C178.944 52.2533 178.631 52.1333 178.311 52.04C178.004 51.9333 177.698 51.8467 177.391 51.78C177.084 51.7133 176.778 51.68 176.471 51.68C175.898 51.68 175.464 51.78 175.171 51.98C174.878 52.18 174.731 52.46 174.731 52.82C174.731 53.0867 174.798 53.3133 174.931 53.5C175.078 53.6867 175.324 53.8733 175.671 54.06C176.031 54.2467 176.524 54.4667 177.151 54.72C177.778 54.9733 178.311 55.2333 178.751 55.5C179.191 55.7667 179.524 56.0933 179.751 56.48C179.978 56.8667 180.091 57.36 180.091 57.96Z" fill="black"/>
<path d="M129.737 157H93.002V149.653L106.353 135.117C109.039 132.22 111.198 129.745 112.831 127.691C114.464 125.584 115.649 123.636 116.386 121.845C117.176 120.054 117.571 118.106 117.571 115.999C117.571 113.418 116.913 111.496 115.596 110.232C114.332 108.915 112.647 108.257 110.54 108.257C108.433 108.257 106.432 108.757 104.536 109.758C102.693 110.706 100.744 112.075 98.69 113.866L92.923 107.309C94.4503 105.94 96.0567 104.702 97.742 103.596C99.4273 102.437 101.376 101.516 103.588 100.831C105.853 100.146 108.46 99.804 111.409 99.804C114.832 99.804 117.782 100.462 120.257 101.779C122.785 103.043 124.734 104.807 126.103 107.072C127.472 109.337 128.157 111.97 128.157 114.972C128.157 117.289 127.815 119.422 127.13 121.371C126.498 123.32 125.55 125.242 124.286 127.138C123.022 129.034 121.521 130.983 119.783 132.984C118.045 134.985 116.096 137.171 113.937 139.541L106.274 147.915V148.389H129.737V157ZM172.477 128.718C172.477 133.3 172.161 137.382 171.529 140.963C170.897 144.544 169.818 147.599 168.29 150.127C166.816 152.602 164.893 154.498 162.523 155.815C160.206 157.132 157.362 157.79 153.991 157.79C149.831 157.79 146.381 156.631 143.642 154.314C140.956 151.997 138.955 148.679 137.638 144.36C136.374 139.989 135.742 134.775 135.742 128.718C135.742 122.661 136.322 117.474 137.48 113.155C138.692 108.836 140.64 105.518 143.326 103.201C146.012 100.884 149.594 99.725 154.07 99.725C158.284 99.725 161.733 100.884 164.419 103.201C167.158 105.466 169.186 108.784 170.502 113.155C171.819 117.474 172.477 122.661 172.477 128.718ZM146.249 128.797C146.249 133.379 146.486 137.224 146.96 140.331C147.434 143.386 148.251 145.703 149.409 147.283C150.568 148.81 152.122 149.574 154.07 149.574C156.019 149.574 157.546 148.81 158.652 147.283C159.811 145.756 160.654 143.438 161.18 140.331C161.707 137.224 161.97 133.379 161.97 128.797C161.97 124.162 161.707 120.318 161.18 117.263C160.654 114.156 159.811 111.838 158.652 110.311C157.546 108.731 156.019 107.941 154.07 107.941C152.122 107.941 150.568 108.731 149.409 110.311C148.251 111.838 147.434 114.129 146.96 117.184C146.486 120.239 146.249 124.11 146.249 128.797Z" fill="#131313"/>
<path d="M95.986 195.148C96.994 195.148 97.822 195.286 98.47 195.562C99.13 195.826 99.616 196.228 99.928 196.768C100.252 197.308 100.414 197.986 100.414 198.802C100.414 199.486 100.294 200.056 100.054 200.512C99.826 200.968 99.526 201.334 99.154 201.61C98.794 201.874 98.41 202.084 98.002 202.24L101.35 208H99.478L96.562 202.69H94.24V208H92.638V195.148H95.986ZM95.896 196.552H94.24V201.322H95.968C96.616 201.322 97.144 201.232 97.552 201.052C97.972 200.86 98.278 200.584 98.47 200.224C98.662 199.864 98.758 199.414 98.758 198.874C98.758 198.31 98.656 197.86 98.452 197.524C98.248 197.188 97.93 196.942 97.498 196.786C97.078 196.63 96.544 196.552 95.896 196.552ZM106.532 198.172C107.312 198.172 107.984 198.352 108.548 198.712C109.112 199.072 109.544 199.582 109.844 200.242C110.156 200.89 110.312 201.652 110.312 202.528V203.482H104.12C104.144 204.574 104.402 205.408 104.894 205.984C105.386 206.548 106.076 206.83 106.964 206.83C107.54 206.83 108.05 206.776 108.494 206.668C108.95 206.548 109.418 206.38 109.898 206.164V207.55C109.43 207.766 108.968 207.922 108.512 208.018C108.068 208.126 107.528 208.18 106.892 208.18C106.028 208.18 105.266 207.994 104.606 207.622C103.946 207.25 103.43 206.698 103.058 205.966C102.686 205.222 102.5 204.316 102.5 203.248C102.5 202.192 102.668 201.286 103.004 200.53C103.34 199.774 103.808 199.192 104.408 198.784C105.02 198.376 105.728 198.172 106.532 198.172ZM106.532 199.468C105.836 199.468 105.284 199.714 104.876 200.206C104.468 200.686 104.228 201.358 104.156 202.222H108.692C108.692 201.67 108.614 201.19 108.458 200.782C108.302 200.374 108.062 200.056 107.738 199.828C107.426 199.588 107.024 199.468 106.532 199.468ZM115.788 208.18C114.672 208.18 113.772 207.766 113.088 206.938C112.416 206.098 112.08 204.85 112.08 203.194C112.08 201.538 112.422 200.29 113.106 199.45C113.79 198.598 114.69 198.172 115.806 198.172C116.274 198.172 116.682 198.238 117.03 198.37C117.378 198.49 117.678 198.658 117.93 198.874C118.194 199.09 118.416 199.33 118.596 199.594H118.704C118.692 199.438 118.668 199.21 118.632 198.91C118.608 198.598 118.596 198.352 118.596 198.172V194.32H120.162V208H118.902L118.668 206.704H118.596C118.416 206.98 118.194 207.232 117.93 207.46C117.678 207.676 117.372 207.85 117.012 207.982C116.664 208.114 116.256 208.18 115.788 208.18ZM116.076 206.866C117.012 206.866 117.666 206.59 118.038 206.038C118.422 205.474 118.614 204.628 118.614 203.5V203.212C118.614 202.012 118.434 201.094 118.074 200.458C117.714 199.81 117.042 199.486 116.058 199.486C115.266 199.486 114.672 199.828 114.276 200.512C113.892 201.184 113.7 202.09 113.7 203.23C113.7 204.382 113.892 205.276 114.276 205.912C114.672 206.548 115.272 206.866 116.076 206.866ZM126.536 198.172C127.316 198.172 127.988 198.352 128.552 198.712C129.116 199.072 129.548 199.582 129.848 200.242C130.16 200.89 130.316 201.652 130.316 202.528V203.482H124.124C124.148 204.574 124.406 205.408 124.898 205.984C125.39 206.548 126.08 206.83 126.968 206.83C127.544 206.83 128.054 206.776 128.498 206.668C128.954 206.548 129.422 206.38 129.902 206.164V207.55C129.434 207.766 128.972 207.922 128.516 208.018C128.072 208.126 127.532 208.18 126.896 208.18C126.032 208.18 125.27 207.994 124.61 207.622C123.95 207.25 123.434 206.698 123.062 205.966C122.69 205.222 122.504 204.316 122.504 203.248C122.504 202.192 122.672 201.286 123.008 200.53C123.344 199.774 123.812 199.192 124.412 198.784C125.024 198.376 125.732 198.172 126.536 198.172ZM126.536 199.468C125.84 199.468 125.288 199.714 124.88 200.206C124.472 200.686 124.232 201.358 124.16 202.222H128.696C128.696 201.67 128.618 201.19 128.462 200.782C128.306 200.374 128.066 200.056 127.742 199.828C127.43 199.588 127.028 199.468 126.536 199.468ZM136.116 198.172C136.896 198.172 137.568 198.352 138.132 198.712C138.696 199.072 139.128 199.582 139.428 200.242C139.74 200.89 139.896 201.652 139.896 202.528V203.482H133.704C133.728 204.574 133.986 205.408 134.478 205.984C134.97 206.548 135.66 206.83 136.548 206.83C137.124 206.83 137.634 206.776 138.078 206.668C138.534 206.548 139.002 206.38 139.482 206.164V207.55C139.014 207.766 138.552 207.922 138.096 208.018C137.652 208.126 137.112 208.18 136.476 208.18C135.612 208.18 134.85 207.994 134.19 207.622C133.53 207.25 133.014 206.698 132.642 205.966C132.27 205.222 132.084 204.316 132.084 203.248C132.084 202.192 132.252 201.286 132.588 200.53C132.924 199.774 133.392 199.192 133.992 198.784C134.604 198.376 135.312 198.172 136.116 198.172ZM136.116 199.468C135.42 199.468 134.868 199.714 134.46 200.206C134.052 200.686 133.812 201.358 133.74 202.222H138.276C138.276 201.67 138.198 201.19 138.042 200.782C137.886 200.374 137.646 200.056 137.322 199.828C137.01 199.588 136.608 199.468 136.116 199.468ZM152.194 198.172C153.226 198.172 153.994 198.454 154.498 199.018C155.002 199.57 155.254 200.47 155.254 201.718V208H153.706V201.79C153.706 201.034 153.556 200.464 153.256 200.08C152.968 199.696 152.512 199.504 151.888 199.504C151.024 199.504 150.406 199.774 150.034 200.314C149.674 200.854 149.494 201.64 149.494 202.672V208H147.928V201.79C147.928 201.286 147.862 200.866 147.73 200.53C147.598 200.182 147.4 199.924 147.136 199.756C146.872 199.588 146.53 199.504 146.11 199.504C145.51 199.504 145.036 199.642 144.688 199.918C144.34 200.182 144.094 200.572 143.95 201.088C143.806 201.604 143.734 202.24 143.734 202.996V208H142.168V198.352H143.428L143.662 199.666H143.752C143.944 199.33 144.178 199.054 144.454 198.838C144.73 198.61 145.036 198.442 145.372 198.334C145.708 198.226 146.056 198.172 146.416 198.172C147.112 198.172 147.694 198.304 148.162 198.568C148.63 198.832 148.972 199.24 149.188 199.792H149.296C149.596 199.24 150.004 198.832 150.52 198.568C151.048 198.304 151.606 198.172 152.194 198.172Z" fill="#60BA8A"/>
<path d="M165.98 206.7L170.9 201.78C170.939 201.744 170.969 201.701 170.99 201.653C171.011 201.604 171.022 201.552 171.022 201.5C171.022 201.447 171.011 201.396 170.99 201.347C170.969 201.299 170.939 201.256 170.9 201.22L165.98 196.3" stroke="#60BA8A" stroke-width="1.92" stroke-linecap="round" stroke-linejoin="round"/>
<g filter="url(#filter1_d_234_1574)">
<rect x="265" y="17" width="224" height="224" rx="16" fill="white"/>
</g>
<path d="M293.6 46.72C294.747 46.72 295.693 46.8733 296.44 47.18C297.187 47.4867 297.74 47.9467 298.1 48.56C298.473 49.16 298.66 49.92 298.66 50.84C298.66 51.5733 298.533 52.1933 298.28 52.7C298.04 53.1933 297.72 53.6 297.32 53.92C296.933 54.2267 296.513 54.4733 296.06 54.66L299.84 61H297.32L294.14 55.22H291.96V61H289.74V46.72H293.6ZM293.5 48.56H291.96V53.42H293.54C294.193 53.42 294.727 53.3267 295.14 53.14C295.567 52.9533 295.88 52.6733 296.08 52.3C296.293 51.9267 296.4 51.4667 296.4 50.92C296.4 50.3467 296.293 49.8933 296.08 49.56C295.88 49.2133 295.56 48.96 295.12 48.8C294.693 48.64 294.153 48.56 293.5 48.56ZM305.592 50.02C306.486 50.02 307.259 50.22 307.912 50.62C308.566 51.0067 309.066 51.5667 309.412 52.3C309.772 53.0333 309.952 53.9 309.952 54.9V56.06H303.172C303.199 57.1667 303.466 58.0133 303.972 58.6C304.479 59.1867 305.192 59.48 306.112 59.48C306.766 59.48 307.346 59.42 307.852 59.3C308.372 59.1667 308.899 58.9733 309.432 58.72V60.48C308.926 60.72 308.406 60.9 307.872 61.02C307.352 61.14 306.719 61.2 305.972 61.2C304.999 61.2 304.132 60.9933 303.372 60.58C302.612 60.1667 302.019 59.5533 301.592 58.74C301.166 57.9133 300.952 56.9 300.952 55.7C300.952 54.4867 301.146 53.46 301.532 52.62C301.919 51.78 302.459 51.14 303.152 50.7C303.859 50.2467 304.672 50.02 305.592 50.02ZM305.592 51.66C304.912 51.66 304.366 51.9067 303.952 52.4C303.539 52.8933 303.299 53.5933 303.232 54.5H307.812C307.812 53.94 307.732 53.4467 307.572 53.02C307.412 52.5933 307.166 52.26 306.832 52.02C306.512 51.78 306.099 51.66 305.592 51.66ZM318.84 55.02C318.774 54.7667 318.707 54.5067 318.64 54.24C318.574 53.9733 318.507 53.72 318.44 53.48C318.387 53.24 318.34 53.0133 318.3 52.8C318.26 52.5867 318.227 52.4 318.2 52.24H318.12C318.107 52.4 318.074 52.5933 318.02 52.82C317.98 53.0333 317.934 53.2667 317.88 53.52C317.827 53.76 317.767 54.0133 317.7 54.28C317.634 54.5333 317.567 54.7933 317.5 55.06L315.9 60.98H313.42L310.68 50.2H312.86L314.14 55.88C314.234 56.2533 314.314 56.6333 314.38 57.02C314.46 57.3933 314.534 57.7533 314.6 58.1C314.667 58.4333 314.707 58.7267 314.72 58.98H314.8C314.827 58.8067 314.86 58.6 314.9 58.36C314.954 58.1067 315.007 57.8467 315.06 57.58C315.114 57.3133 315.167 57.0533 315.22 56.8C315.287 56.5467 315.347 56.3267 315.4 56.14L317 50.2H319.38L320.92 56.14C321 56.4067 321.08 56.7133 321.16 57.06C321.24 57.4067 321.314 57.7467 321.38 58.08C321.447 58.4133 321.487 58.7067 321.5 58.96H321.56C321.587 58.7333 321.627 58.4533 321.68 58.12C321.747 57.7867 321.827 57.4267 321.92 57.04C322.014 56.6533 322.1 56.2667 322.18 55.88L323.5 50.2H325.64L322.88 60.98H320.36L318.84 55.02ZM331.432 50.02C332.699 50.02 333.652 50.32 334.292 50.92C334.945 51.5067 335.272 52.4333 335.272 53.7V61H333.732L333.312 59.5H333.232C332.925 59.8867 332.619 60.2067 332.312 60.46C332.019 60.7133 331.672 60.9 331.272 61.02C330.885 61.14 330.405 61.2 329.832 61.2C329.232 61.2 328.692 61.0867 328.212 60.86C327.732 60.62 327.352 60.26 327.072 59.78C326.792 59.2867 326.652 58.6733 326.652 57.94C326.652 56.8467 327.039 56.0133 327.812 55.44C328.599 54.8667 329.792 54.5533 331.392 54.5L333.112 54.44V53.84C333.112 53.04 332.945 52.48 332.612 52.16C332.292 51.84 331.839 51.68 331.252 51.68C330.759 51.68 330.272 51.76 329.792 51.92C329.312 52.08 328.845 52.2733 328.392 52.5L327.732 50.96C328.225 50.6933 328.785 50.4733 329.412 50.3C330.052 50.1133 330.725 50.02 331.432 50.02ZM331.812 55.86C330.719 55.9133 329.959 56.12 329.532 56.48C329.105 56.8267 328.892 57.32 328.892 57.96C328.892 58.52 329.039 58.9267 329.332 59.18C329.639 59.4333 330.032 59.56 330.512 59.56C331.245 59.56 331.859 59.3267 332.352 58.86C332.859 58.3933 333.112 57.6933 333.112 56.76V55.82L331.812 55.86ZM343.39 50.02C343.564 50.02 343.757 50.0333 343.97 50.06C344.184 50.0733 344.364 50.0933 344.51 50.12L344.29 52.1C344.144 52.06 343.977 52.0267 343.79 52C343.604 51.9733 343.417 51.96 343.23 51.96C342.87 51.96 342.524 52.04 342.19 52.2C341.857 52.3467 341.557 52.5667 341.29 52.86C341.024 53.14 340.81 53.4867 340.65 53.9C340.49 54.3133 340.41 54.7867 340.41 55.32V61H338.25V50.22H339.95L340.23 52.14H340.35C340.55 51.7533 340.797 51.4 341.09 51.08C341.397 50.76 341.744 50.5067 342.13 50.32C342.517 50.12 342.937 50.02 343.39 50.02ZM349.425 61.2C348.225 61.2 347.252 60.7333 346.505 59.8C345.772 58.8667 345.405 57.48 345.405 55.64C345.405 53.7867 345.779 52.3867 346.525 51.44C347.272 50.4933 348.252 50.02 349.465 50.02C349.985 50.02 350.432 50.0933 350.805 50.24C351.179 50.3733 351.505 50.56 351.785 50.8C352.065 51.04 352.299 51.3067 352.485 51.6H352.605C352.579 51.4133 352.545 51.1467 352.505 50.8C352.479 50.44 352.465 50.12 352.465 49.84V45.8H354.625V61H352.925L352.545 59.56H352.465C352.279 59.8667 352.045 60.1467 351.765 60.4C351.485 60.64 351.152 60.8333 350.765 60.98C350.392 61.1267 349.945 61.2 349.425 61.2ZM350.005 59.46C350.939 59.46 351.592 59.1733 351.965 58.6C352.352 58.0133 352.545 57.14 352.545 55.98V55.66C352.545 54.3933 352.365 53.4267 352.005 52.76C351.645 52.0933 350.972 51.76 349.985 51.76C349.212 51.76 348.625 52.1133 348.225 52.82C347.825 53.5133 347.625 54.4667 347.625 55.68C347.625 56.8933 347.825 57.8267 348.225 58.48C348.625 59.1333 349.219 59.46 350.005 59.46ZM364.525 57.96C364.525 58.6667 364.365 59.26 364.045 59.74C363.725 60.22 363.258 60.5867 362.645 60.84C362.031 61.08 361.278 61.2 360.385 61.2C359.678 61.2 359.058 61.14 358.525 61.02C358.005 60.9133 357.525 60.7533 357.085 60.54V58.68C357.551 58.9067 358.085 59.1133 358.685 59.3C359.285 59.4733 359.858 59.56 360.405 59.56C361.111 59.56 361.625 59.4333 361.945 59.18C362.265 58.9267 362.425 58.5867 362.425 58.16C362.425 57.92 362.358 57.7067 362.225 57.52C362.105 57.32 361.871 57.12 361.525 56.92C361.178 56.7067 360.678 56.4667 360.025 56.2C359.385 55.92 358.845 55.6467 358.405 55.38C357.978 55.1 357.645 54.7733 357.405 54.4C357.178 54.0133 357.065 53.52 357.065 52.92C357.065 51.9867 357.425 51.2733 358.145 50.78C358.865 50.2733 359.805 50.02 360.965 50.02C361.605 50.02 362.198 50.0867 362.745 50.22C363.291 50.34 363.825 50.5267 364.345 50.78L363.685 52.4C363.378 52.2533 363.065 52.1333 362.745 52.04C362.438 51.9333 362.131 51.8467 361.825 51.78C361.518 51.7133 361.211 51.68 360.905 51.68C360.331 51.68 359.898 51.78 359.605 51.98C359.311 52.18 359.165 52.46 359.165 52.82C359.165 53.0867 359.231 53.3133 359.365 53.5C359.511 53.6867 359.758 53.8733 360.105 54.06C360.465 54.2467 360.958 54.4667 361.585 54.72C362.211 54.9733 362.745 55.2333 363.185 55.5C363.625 55.7667 363.958 56.0933 364.185 56.48C364.411 56.8667 364.525 57.36 364.525 57.96ZM375.807 46.72C376.954 46.72 377.9 46.8733 378.647 47.18C379.394 47.4867 379.947 47.9467 380.307 48.56C380.68 49.16 380.867 49.92 380.867 50.84C380.867 51.5733 380.74 52.1933 380.487 52.7C380.247 53.1933 379.927 53.6 379.527 53.92C379.14 54.2267 378.72 54.4733 378.267 54.66L382.047 61H379.527L376.347 55.22H374.167V61H371.947V46.72H375.807ZM375.707 48.56H374.167V53.42H375.747C376.4 53.42 376.934 53.3267 377.347 53.14C377.774 52.9533 378.087 52.6733 378.287 52.3C378.5 51.9267 378.607 51.4667 378.607 50.92C378.607 50.3467 378.5 49.8933 378.287 49.56C378.087 49.2133 377.767 48.96 377.327 48.8C376.9 48.64 376.36 48.56 375.707 48.56ZM387.799 50.02C388.693 50.02 389.466 50.22 390.119 50.62C390.773 51.0067 391.273 51.5667 391.619 52.3C391.979 53.0333 392.159 53.9 392.159 54.9V56.06H385.379C385.406 57.1667 385.673 58.0133 386.179 58.6C386.686 59.1867 387.399 59.48 388.319 59.48C388.973 59.48 389.553 59.42 390.059 59.3C390.579 59.1667 391.106 58.9733 391.639 58.72V60.48C391.133 60.72 390.613 60.9 390.079 61.02C389.559 61.14 388.926 61.2 388.179 61.2C387.206 61.2 386.339 60.9933 385.579 60.58C384.819 60.1667 384.226 59.5533 383.799 58.74C383.373 57.9133 383.159 56.9 383.159 55.7C383.159 54.4867 383.353 53.46 383.739 52.62C384.126 51.78 384.666 51.14 385.359 50.7C386.066 50.2467 386.879 50.02 387.799 50.02ZM387.799 51.66C387.119 51.66 386.573 51.9067 386.159 52.4C385.746 52.8933 385.506 53.5933 385.439 54.5H390.019C390.019 53.94 389.939 53.4467 389.779 53.02C389.619 52.5933 389.373 52.26 389.039 52.02C388.719 51.78 388.306 51.66 387.799 51.66ZM398.039 61.2C396.839 61.2 395.865 60.7333 395.119 59.8C394.385 58.8667 394.019 57.48 394.019 55.64C394.019 53.7867 394.392 52.3867 395.139 51.44C395.885 50.4933 396.865 50.02 398.079 50.02C398.599 50.02 399.045 50.0933 399.419 50.24C399.792 50.3733 400.119 50.56 400.399 50.8C400.679 51.04 400.912 51.3067 401.099 51.6H401.219C401.192 51.4133 401.159 51.1467 401.119 50.8C401.092 50.44 401.079 50.12 401.079 49.84V45.8H403.239V61H401.539L401.159 59.56H401.079C400.892 59.8667 400.659 60.1467 400.379 60.4C400.099 60.64 399.765 60.8333 399.379 60.98C399.005 61.1267 398.559 61.2 398.039 61.2ZM398.619 59.46C399.552 59.46 400.205 59.1733 400.579 58.6C400.965 58.0133 401.159 57.14 401.159 55.98V55.66C401.159 54.3933 400.979 53.4267 400.619 52.76C400.259 52.0933 399.585 51.76 398.599 51.76C397.825 51.76 397.239 52.1133 396.839 52.82C396.439 53.5133 396.239 54.4667 396.239 55.68C396.239 56.8933 396.439 57.8267 396.839 58.48C397.239 59.1333 397.832 59.46 398.619 59.46ZM410.358 50.02C411.251 50.02 412.024 50.22 412.678 50.62C413.331 51.0067 413.831 51.5667 414.178 52.3C414.538 53.0333 414.718 53.9 414.718 54.9V56.06H407.938C407.964 57.1667 408.231 58.0133 408.738 58.6C409.244 59.1867 409.958 59.48 410.878 59.48C411.531 59.48 412.111 59.42 412.618 59.3C413.138 59.1667 413.664 58.9733 414.198 58.72V60.48C413.691 60.72 413.171 60.9 412.638 61.02C412.118 61.14 411.484 61.2 410.738 61.2C409.764 61.2 408.898 60.9933 408.138 60.58C407.378 60.1667 406.784 59.5533 406.358 58.74C405.931 57.9133 405.718 56.9 405.718 55.7C405.718 54.4867 405.911 53.46 406.298 52.62C406.684 51.78 407.224 51.14 407.918 50.7C408.624 50.2467 409.438 50.02 410.358 50.02ZM410.358 51.66C409.678 51.66 409.131 51.9067 408.718 52.4C408.304 52.8933 408.064 53.5933 407.998 54.5H412.578C412.578 53.94 412.498 53.4467 412.338 53.02C412.178 52.5933 411.931 52.26 411.598 52.02C411.278 51.78 410.864 51.66 410.358 51.66ZM421.217 50.02C422.111 50.02 422.884 50.22 423.537 50.62C424.191 51.0067 424.691 51.5667 425.037 52.3C425.397 53.0333 425.577 53.9 425.577 54.9V56.06H418.797C418.824 57.1667 419.091 58.0133 419.597 58.6C420.104 59.1867 420.817 59.48 421.737 59.48C422.391 59.48 422.971 59.42 423.477 59.3C423.997 59.1667 424.524 58.9733 425.057 58.72V60.48C424.551 60.72 424.031 60.9 423.497 61.02C422.977 61.14 422.344 61.2 421.597 61.2C420.624 61.2 419.757 60.9933 418.997 60.58C418.237 60.1667 417.644 59.5533 417.217 58.74C416.791 57.9133 416.577 56.9 416.577 55.7C416.577 54.4867 416.771 53.46 417.157 52.62C417.544 51.78 418.084 51.14 418.777 50.7C419.484 50.2467 420.297 50.02 421.217 50.02ZM421.217 51.66C420.537 51.66 419.991 51.9067 419.577 52.4C419.164 52.8933 418.924 53.5933 418.857 54.5H423.437C423.437 53.94 423.357 53.4467 423.197 53.02C423.037 52.5933 422.791 52.26 422.457 52.02C422.137 51.78 421.724 51.66 421.217 51.66ZM439.497 50.02C440.643 50.02 441.503 50.3333 442.077 50.96C442.663 51.5867 442.957 52.5933 442.957 53.98V61H440.797V54.26C440.797 53.4333 440.643 52.8133 440.337 52.4C440.043 51.9733 439.583 51.76 438.957 51.76C438.09 51.76 437.47 52.06 437.097 52.66C436.737 53.2467 436.557 54.1 436.557 55.22V61H434.377V54.26C434.377 53.7133 434.31 53.2533 434.177 52.88C434.043 52.5067 433.843 52.2267 433.577 52.04C433.31 51.8533 432.963 51.76 432.537 51.76C431.937 51.76 431.463 51.9067 431.117 52.2C430.77 52.4933 430.523 52.9267 430.377 53.5C430.23 54.06 430.157 54.7467 430.157 55.56V61H427.997V50.22H429.697L430.017 51.66H430.117C430.33 51.2867 430.583 50.98 430.877 50.74C431.183 50.5 431.53 50.32 431.917 50.2C432.303 50.08 432.703 50.02 433.117 50.02C433.877 50.02 434.517 50.1667 435.037 50.46C435.557 50.74 435.943 51.1733 436.197 51.76H436.337C436.657 51.16 437.103 50.72 437.677 50.44C438.25 50.16 438.857 50.02 439.497 50.02ZM450.006 50.02C450.9 50.02 451.673 50.22 452.326 50.62C452.98 51.0067 453.48 51.5667 453.826 52.3C454.186 53.0333 454.366 53.9 454.366 54.9V56.06H447.586C447.613 57.1667 447.88 58.0133 448.386 58.6C448.893 59.1867 449.606 59.48 450.526 59.48C451.18 59.48 451.76 59.42 452.266 59.3C452.786 59.1667 453.313 58.9733 453.846 58.72V60.48C453.34 60.72 452.82 60.9 452.286 61.02C451.766 61.14 451.133 61.2 450.386 61.2C449.413 61.2 448.546 60.9933 447.786 60.58C447.026 60.1667 446.433 59.5533 446.006 58.74C445.58 57.9133 445.366 56.9 445.366 55.7C445.366 54.4867 445.56 53.46 445.946 52.62C446.333 51.78 446.873 51.14 447.566 50.7C448.273 50.2467 449.086 50.02 450.006 50.02ZM450.006 51.66C449.326 51.66 448.78 51.9067 448.366 52.4C447.953 52.8933 447.713 53.5933 447.646 54.5H452.226C452.226 53.94 452.146 53.4467 451.986 53.02C451.826 52.5933 451.58 52.26 451.246 52.02C450.926 51.78 450.513 51.66 450.006 51.66ZM460.246 61.2C459.046 61.2 458.072 60.7333 457.326 59.8C456.592 58.8667 456.226 57.48 456.226 55.64C456.226 53.7867 456.599 52.3867 457.346 51.44C458.092 50.4933 459.072 50.02 460.286 50.02C460.806 50.02 461.252 50.0933 461.626 50.24C461.999 50.3733 462.326 50.56 462.606 50.8C462.886 51.04 463.119 51.3067 463.306 51.6H463.426C463.399 51.4133 463.366 51.1467 463.326 50.8C463.299 50.44 463.286 50.12 463.286 49.84V45.8H465.446V61H463.746L463.366 59.56H463.286C463.099 59.8667 462.866 60.1467 462.586 60.4C462.306 60.64 461.972 60.8333 461.586 60.98C461.212 61.1267 460.766 61.2 460.246 61.2ZM460.826 59.46C461.759 59.46 462.412 59.1733 462.786 58.6C463.172 58.0133 463.366 57.14 463.366 55.98V55.66C463.366 54.3933 463.186 53.4267 462.826 52.76C462.466 52.0933 461.792 51.76 460.806 51.76C460.032 51.76 459.446 52.1133 459.046 52.82C458.646 53.5133 458.446 54.4667 458.446 55.68C458.446 56.8933 458.646 57.8267 459.046 58.48C459.446 59.1333 460.039 59.46 460.826 59.46Z" fill="black"/>
<path d="M385.178 157H374.671V121.845C374.671 120.686 374.671 119.501 374.671 118.29C374.724 117.079 374.75 115.867 374.75 114.656C374.803 113.392 374.855 112.233 374.908 111.18C374.381 111.707 373.776 112.339 373.091 113.076C372.459 113.813 371.748 114.524 370.958 115.209L365.112 120.265L359.74 114.103L376.172 100.594H385.178V157Z" fill="#131313"/>
<path d="M347.541 195.148L343.239 208H341.619L337.317 195.148H338.991L341.673 203.392C341.793 203.74 341.895 204.076 341.979 204.4C342.075 204.724 342.159 205.036 342.231 205.336C342.315 205.624 342.381 205.912 342.429 206.2C342.477 205.912 342.537 205.618 342.609 205.318C342.681 205.018 342.765 204.706 342.861 204.382C342.969 204.058 343.077 203.716 343.185 203.356L345.849 195.148H347.541ZM350.554 198.352V208H348.988V198.352H350.554ZM349.78 194.734C350.02 194.734 350.23 194.818 350.41 194.986C350.59 195.142 350.68 195.394 350.68 195.742C350.68 196.078 350.59 196.33 350.41 196.498C350.23 196.666 350.02 196.75 349.78 196.75C349.528 196.75 349.312 196.666 349.132 196.498C348.952 196.33 348.862 196.078 348.862 195.742C348.862 195.394 348.952 195.142 349.132 194.986C349.312 194.818 349.528 194.734 349.78 194.734ZM356.928 198.172C357.708 198.172 358.38 198.352 358.944 198.712C359.508 199.072 359.94 199.582 360.24 200.242C360.552 200.89 360.708 201.652 360.708 202.528V203.482H354.516C354.54 204.574 354.798 205.408 355.29 205.984C355.782 206.548 356.472 206.83 357.36 206.83C357.936 206.83 358.446 206.776 358.89 206.668C359.346 206.548 359.814 206.38 360.294 206.164V207.55C359.826 207.766 359.364 207.922 358.908 208.018C358.464 208.126 357.924 208.18 357.288 208.18C356.424 208.18 355.662 207.994 355.002 207.622C354.342 207.25 353.826 206.698 353.454 205.966C353.082 205.222 352.896 204.316 352.896 203.248C352.896 202.192 353.064 201.286 353.4 200.53C353.736 199.774 354.204 199.192 354.804 198.784C355.416 198.376 356.124 198.172 356.928 198.172ZM356.928 199.468C356.232 199.468 355.68 199.714 355.272 200.206C354.864 200.686 354.624 201.358 354.552 202.222H359.088C359.088 201.67 359.01 201.19 358.854 200.782C358.698 200.374 358.458 200.056 358.134 199.828C357.822 199.588 357.42 199.468 356.928 199.468ZM368.586 202.546C368.514 202.294 368.442 202.048 368.37 201.808C368.31 201.556 368.25 201.322 368.19 201.106C368.13 200.878 368.076 200.668 368.028 200.476C367.992 200.284 367.962 200.122 367.938 199.99H367.866C367.842 200.122 367.806 200.284 367.758 200.476C367.722 200.668 367.674 200.878 367.614 201.106C367.566 201.334 367.506 201.574 367.434 201.826C367.374 202.066 367.308 202.312 367.236 202.564L365.67 207.982H363.906L361.404 198.334H363.024L364.266 203.482C364.35 203.83 364.428 204.184 364.5 204.544C364.584 204.892 364.656 205.228 364.716 205.552C364.776 205.864 364.818 206.134 364.842 206.362H364.914C364.938 206.218 364.968 206.038 365.004 205.822C365.052 205.606 365.1 205.378 365.148 205.138C365.208 204.898 365.268 204.658 365.328 204.418C365.388 204.178 365.448 203.962 365.508 203.77L367.074 198.334H368.802L370.314 203.77C370.398 204.046 370.476 204.34 370.548 204.652C370.632 204.964 370.704 205.27 370.764 205.57C370.836 205.858 370.884 206.116 370.908 206.344H370.962C370.986 206.14 371.028 205.888 371.088 205.588C371.148 205.276 371.22 204.94 371.304 204.58C371.4 204.208 371.49 203.842 371.574 203.482L372.834 198.334H374.418L371.898 207.982H370.08L368.586 202.546ZM388.193 208L386.789 204.022H382.019L380.633 208H378.995L383.675 195.094H385.187L389.849 208H388.193ZM384.989 198.694C384.965 198.598 384.911 198.424 384.827 198.172C384.755 197.92 384.677 197.662 384.593 197.398C384.521 197.122 384.461 196.912 384.413 196.768C384.353 197.008 384.287 197.254 384.215 197.506C384.155 197.746 384.095 197.968 384.035 198.172C383.975 198.376 383.921 198.55 383.873 198.694L382.541 202.582H386.321L384.989 198.694ZM392.846 208H391.28V194.32H392.846V208ZM397.259 208H395.693V194.32H397.259V208Z" fill="#60BA8A"/>
<path d="M407.98 206.7L412.9 201.78C412.939 201.744 412.969 201.701 412.99 201.653C413.011 201.604 413.022 201.552 413.022 201.5C413.022 201.447 413.011 201.396 412.99 201.347C412.969 201.299 412.939 201.256 412.9 201.22L407.98 196.3" stroke="#60BA8A" stroke-width="1.92" stroke-linecap="round" stroke-linejoin="round"/>
<g filter="url(#filter2_d_234_1574)">
<rect x="509" y="17" width="224" height="224" rx="16" fill="white"/>
</g>
<path d="M557.68 53.72C557.68 55.32 557.393 56.66 556.82 57.74C556.26 58.82 555.453 59.6333 554.4 60.18C553.347 60.7267 552.073 61 550.58 61H546.74V46.72H550.98C552.353 46.72 553.54 46.9867 554.54 47.52C555.54 48.0533 556.313 48.84 556.86 49.88C557.407 50.9067 557.68 52.1867 557.68 53.72ZM555.36 53.78C555.36 52.58 555.187 51.5933 554.84 50.82C554.493 50.0467 553.98 49.4733 553.3 49.1C552.633 48.7267 551.813 48.54 550.84 48.54H548.96V59.18H550.52C552.133 59.18 553.34 58.7267 554.14 57.82C554.953 56.9133 555.36 55.5667 555.36 53.78ZM564.389 50.02C565.282 50.02 566.056 50.22 566.709 50.62C567.362 51.0067 567.862 51.5667 568.209 52.3C568.569 53.0333 568.749 53.9 568.749 54.9V56.06H561.969C561.996 57.1667 562.262 58.0133 562.769 58.6C563.276 59.1867 563.989 59.48 564.909 59.48C565.562 59.48 566.142 59.42 566.649 59.3C567.169 59.1667 567.696 58.9733 568.229 58.72V60.48C567.722 60.72 567.202 60.9 566.669 61.02C566.149 61.14 565.516 61.2 564.769 61.2C563.796 61.2 562.929 60.9933 562.169 60.58C561.409 60.1667 560.816 59.5533 560.389 58.74C559.962 57.9133 559.749 56.9 559.749 55.7C559.749 54.4867 559.942 53.46 560.329 52.62C560.716 51.78 561.256 51.14 561.949 50.7C562.656 50.2467 563.469 50.02 564.389 50.02ZM564.389 51.66C563.709 51.66 563.162 51.9067 562.749 52.4C562.336 52.8933 562.096 53.5933 562.029 54.5H566.609C566.609 53.94 566.529 53.4467 566.369 53.02C566.209 52.5933 565.962 52.26 565.629 52.02C565.309 51.78 564.896 51.66 564.389 51.66ZM573.137 61L569.277 50.22H571.577L573.597 56.52C573.704 56.7867 573.797 57.0867 573.877 57.42C573.971 57.7533 574.051 58.0733 574.117 58.38C574.184 58.6867 574.231 58.9533 574.257 59.18H574.337C574.364 58.9533 574.411 58.6867 574.477 58.38C574.557 58.06 574.644 57.74 574.737 57.42C574.831 57.0867 574.924 56.7867 575.017 56.52L577.037 50.22H579.357L575.477 61H573.137ZM583.055 50.22V61H580.875V50.22H583.055ZM581.995 46.12C582.315 46.12 582.595 46.2133 582.835 46.4C583.075 46.5867 583.195 46.9 583.195 47.34C583.195 47.7667 583.075 48.08 582.835 48.28C582.595 48.4667 582.315 48.56 581.995 48.56C581.649 48.56 581.355 48.4667 581.115 48.28C580.875 48.08 580.755 47.7667 580.755 47.34C580.755 46.9 580.875 46.5867 581.115 46.4C581.355 46.2133 581.649 46.12 581.995 46.12ZM590.27 61.2C589.324 61.2 588.49 61.0067 587.77 60.62C587.064 60.2333 586.51 59.6333 586.11 58.82C585.724 57.9933 585.53 56.9467 585.53 55.68C585.53 54.3467 585.744 53.2667 586.17 52.44C586.597 51.6133 587.177 51.0067 587.91 50.62C588.644 50.22 589.484 50.02 590.43 50.02C590.99 50.02 591.524 50.0867 592.03 50.22C592.55 50.34 592.977 50.48 593.31 50.64L592.65 52.34C592.317 52.2067 591.957 52.0867 591.57 51.98C591.184 51.8733 590.817 51.82 590.47 51.82C589.857 51.82 589.35 51.9667 588.95 52.26C588.564 52.54 588.27 52.9667 588.07 53.54C587.87 54.1 587.77 54.8067 587.77 55.66C587.77 56.4733 587.87 57.16 588.07 57.72C588.27 58.28 588.564 58.7067 588.95 59C589.35 59.28 589.83 59.42 590.39 59.42C590.937 59.42 591.424 59.3533 591.85 59.22C592.29 59.0867 592.697 58.9133 593.07 58.7V60.54C592.697 60.7667 592.29 60.9333 591.85 61.04C591.41 61.1467 590.884 61.2 590.27 61.2ZM599.487 50.02C600.38 50.02 601.153 50.22 601.807 50.62C602.46 51.0067 602.96 51.5667 603.307 52.3C603.667 53.0333 603.847 53.9 603.847 54.9V56.06H597.067C597.093 57.1667 597.36 58.0133 597.867 58.6C598.373 59.1867 599.087 59.48 600.007 59.48C600.66 59.48 601.24 59.42 601.747 59.3C602.267 59.1667 602.793 58.9733 603.327 58.72V60.48C602.82 60.72 602.3 60.9 601.767 61.02C601.247 61.14 600.613 61.2 599.867 61.2C598.893 61.2 598.027 60.9933 597.267 60.58C596.507 60.1667 595.913 59.5533 595.487 58.74C595.06 57.9133 594.847 56.9 594.847 55.7C594.847 54.4867 595.04 53.46 595.427 52.62C595.813 51.78 596.353 51.14 597.047 50.7C597.753 50.2467 598.567 50.02 599.487 50.02ZM599.487 51.66C598.807 51.66 598.26 51.9067 597.847 52.4C597.433 52.8933 597.193 53.5933 597.127 54.5H601.707C601.707 53.94 601.627 53.4467 601.467 53.02C601.307 52.5933 601.06 52.26 600.727 52.02C600.407 51.78 599.993 51.66 599.487 51.66ZM613.126 57.96C613.126 58.6667 612.966 59.26 612.646 59.74C612.326 60.22 611.859 60.5867 611.246 60.84C610.633 61.08 609.879 61.2 608.986 61.2C608.279 61.2 607.659 61.14 607.126 61.02C606.606 60.9133 606.126 60.7533 605.686 60.54V58.68C606.153 58.9067 606.686 59.1133 607.286 59.3C607.886 59.4733 608.459 59.56 609.006 59.56C609.713 59.56 610.226 59.4333 610.546 59.18C610.866 58.9267 611.026 58.5867 611.026 58.16C611.026 57.92 610.959 57.7067 610.826 57.52C610.706 57.32 610.473 57.12 610.126 56.92C609.779 56.7067 609.279 56.4667 608.626 56.2C607.986 55.92 607.446 55.6467 607.006 55.38C606.579 55.1 606.246 54.7733 606.006 54.4C605.779 54.0133 605.666 53.52 605.666 52.92C605.666 51.9867 606.026 51.2733 606.746 50.78C607.466 50.2733 608.406 50.02 609.566 50.02C610.206 50.02 610.799 50.0867 611.346 50.22C611.893 50.34 612.426 50.5267 612.946 50.78L612.286 52.4C611.979 52.2533 611.666 52.1333 611.346 52.04C611.039 51.9333 610.733 51.8467 610.426 51.78C610.119 51.7133 609.813 51.68 609.506 51.68C608.933 51.68 608.499 51.78 608.206 51.98C607.913 52.18 607.766 52.46 607.766 52.82C607.766 53.0867 607.833 53.3133 607.966 53.5C608.113 53.6867 608.359 53.8733 608.706 54.06C609.066 54.2467 609.559 54.4667 610.186 54.72C610.813 54.9733 611.346 55.2333 611.786 55.5C612.226 55.7667 612.559 56.0933 612.786 56.48C613.013 56.8667 613.126 57.36 613.126 57.96ZM631.489 53.72C631.489 55.32 631.202 56.66 630.629 57.74C630.069 58.82 629.262 59.6333 628.209 60.18C627.155 60.7267 625.882 61 624.389 61H620.549V46.72H624.789C626.162 46.72 627.349 46.9867 628.349 47.52C629.349 48.0533 630.122 48.84 630.669 49.88C631.215 50.9067 631.489 52.1867 631.489 53.72ZM629.169 53.78C629.169 52.58 628.995 51.5933 628.649 50.82C628.302 50.0467 627.789 49.4733 627.109 49.1C626.442 48.7267 625.622 48.54 624.649 48.54H622.769V59.18H624.329C625.942 59.18 627.149 58.7267 627.949 57.82C628.762 56.9133 629.169 55.5667 629.169 53.78ZM643.178 55.6C643.178 56.4933 643.064 57.2867 642.838 57.98C642.611 58.6733 642.284 59.26 641.858 59.74C641.444 60.22 640.938 60.5867 640.338 60.84C639.738 61.08 639.064 61.2 638.318 61.2C637.638 61.2 637.004 61.08 636.418 60.84C635.831 60.5867 635.324 60.22 634.898 59.74C634.471 59.26 634.138 58.6733 633.898 57.98C633.671 57.2867 633.558 56.4867 633.558 55.58C633.558 54.3933 633.751 53.3867 634.138 52.56C634.524 51.7333 635.078 51.1067 635.798 50.68C636.531 50.24 637.398 50.02 638.398 50.02C639.331 50.02 640.158 50.24 640.878 50.68C641.598 51.1067 642.158 51.7333 642.558 52.56C642.971 53.3867 643.178 54.4 643.178 55.6ZM635.798 55.6C635.798 56.4 635.884 57.0933 636.058 57.68C636.244 58.2533 636.524 58.6933 636.898 59C637.284 59.3067 637.771 59.46 638.358 59.46C638.958 59.46 639.444 59.3067 639.818 59C640.204 58.6933 640.484 58.2533 640.658 57.68C640.844 57.0933 640.938 56.4 640.938 55.6C640.938 54.7733 640.844 54.08 640.658 53.52C640.471 52.96 640.191 52.5333 639.818 52.24C639.444 51.9333 638.951 51.78 638.338 51.78C637.444 51.78 636.798 52.1133 636.398 52.78C635.998 53.4467 635.798 54.3867 635.798 55.6ZM650.921 50.02C652.094 50.02 652.994 50.3333 653.621 50.96C654.261 51.5867 654.581 52.5933 654.581 53.98V61H652.421V54.28C652.421 53.44 652.254 52.8133 651.921 52.4C651.601 51.9733 651.101 51.76 650.421 51.76C649.421 51.76 648.734 52.0867 648.361 52.74C647.988 53.3933 647.801 54.3333 647.801 55.56V61H645.641V50.22H647.341L647.641 51.66H647.761C647.988 51.2867 648.261 50.98 648.581 50.74C648.901 50.5 649.261 50.32 649.661 50.2C650.061 50.08 650.481 50.02 650.921 50.02ZM661.635 50.02C662.902 50.02 663.855 50.32 664.495 50.92C665.148 51.5067 665.475 52.4333 665.475 53.7V61H663.935L663.515 59.5H663.435C663.128 59.8867 662.822 60.2067 662.515 60.46C662.222 60.7133 661.875 60.9 661.475 61.02C661.088 61.14 660.608 61.2 660.035 61.2C659.435 61.2 658.895 61.0867 658.415 60.86C657.935 60.62 657.555 60.26 657.275 59.78C656.995 59.2867 656.855 58.6733 656.855 57.94C656.855 56.8467 657.242 56.0133 658.015 55.44C658.802 54.8667 659.995 54.5533 661.595 54.5L663.315 54.44V53.84C663.315 53.04 663.148 52.48 662.815 52.16C662.495 51.84 662.042 51.68 661.455 51.68C660.962 51.68 660.475 51.76 659.995 51.92C659.515 52.08 659.048 52.2733 658.595 52.5L657.935 50.96C658.428 50.6933 658.988 50.4733 659.615 50.3C660.255 50.1133 660.928 50.02 661.635 50.02ZM662.015 55.86C660.922 55.9133 660.162 56.12 659.735 56.48C659.308 56.8267 659.095 57.32 659.095 57.96C659.095 58.52 659.242 58.9267 659.535 59.18C659.842 59.4333 660.235 59.56 660.715 59.56C661.448 59.56 662.062 59.3267 662.555 58.86C663.062 58.3933 663.315 57.6933 663.315 56.76V55.82L662.015 55.86ZM672.274 59.48C672.554 59.48 672.827 59.4533 673.094 59.4C673.36 59.3467 673.594 59.2867 673.794 59.22V60.82C673.567 60.9267 673.267 61.0133 672.894 61.08C672.534 61.16 672.154 61.2 671.754 61.2C671.194 61.2 670.68 61.1 670.214 60.9C669.747 60.7 669.374 60.3533 669.094 59.86C668.814 59.3667 668.674 58.68 668.674 57.8V51.84H667.294V50.88L668.774 50.08L669.514 47.8H670.854V50.22H673.714V51.84H670.854V57.76C670.854 58.3467 670.987 58.78 671.254 59.06C671.52 59.34 671.86 59.48 672.274 59.48ZM679.877 50.02C680.771 50.02 681.544 50.22 682.197 50.62C682.851 51.0067 683.351 51.5667 683.697 52.3C684.057 53.0333 684.237 53.9 684.237 54.9V56.06H677.457C677.484 57.1667 677.751 58.0133 678.257 58.6C678.764 59.1867 679.477 59.48 680.397 59.48C681.051 59.48 681.631 59.42 682.137 59.3C682.657 59.1667 683.184 58.9733 683.717 58.72V60.48C683.211 60.72 682.691 60.9 682.157 61.02C681.637 61.14 681.004 61.2 680.257 61.2C679.284 61.2 678.417 60.9933 677.657 60.58C676.897 60.1667 676.304 59.5533 675.877 58.74C675.451 57.9133 675.237 56.9 675.237 55.7C675.237 54.4867 675.431 53.46 675.817 52.62C676.204 51.78 676.744 51.14 677.437 50.7C678.144 50.2467 678.957 50.02 679.877 50.02ZM679.877 51.66C679.197 51.66 678.651 51.9067 678.237 52.4C677.824 52.8933 677.584 53.5933 677.517 54.5H682.097C682.097 53.94 682.017 53.4467 681.857 53.02C681.697 52.5933 681.451 52.26 681.117 52.02C680.797 51.78 680.384 51.66 679.877 51.66ZM690.117 61.2C688.917 61.2 687.943 60.7333 687.197 59.8C686.463 58.8667 686.097 57.48 686.097 55.64C686.097 53.7867 686.47 52.3867 687.217 51.44C687.963 50.4933 688.943 50.02 690.157 50.02C690.677 50.02 691.123 50.0933 691.497 50.24C691.87 50.3733 692.197 50.56 692.477 50.8C692.757 51.04 692.99 51.3067 693.177 51.6H693.297C693.27 51.4133 693.237 51.1467 693.197 50.8C693.17 50.44 693.157 50.12 693.157 49.84V45.8H695.317V61H693.617L693.237 59.56H693.157C692.97 59.8667 692.737 60.1467 692.457 60.4C692.177 60.64 691.843 60.8333 691.457 60.98C691.083 61.1267 690.637 61.2 690.117 61.2ZM690.697 59.46C691.63 59.46 692.283 59.1733 692.657 58.6C693.043 58.0133 693.237 57.14 693.237 55.98V55.66C693.237 54.3933 693.057 53.4267 692.697 52.76C692.337 52.0933 691.663 51.76 690.677 51.76C689.903 51.76 689.317 52.1133 688.917 52.82C688.517 53.5133 688.317 54.4667 688.317 55.68C688.317 56.8933 688.517 57.8267 688.917 58.48C689.317 59.1333 689.91 59.46 690.697 59.46Z" fill="black"/>
<path d="M638.737 157H602.002V149.653L615.353 135.117C618.039 132.22 620.198 129.745 621.831 127.691C623.464 125.584 624.649 123.636 625.386 121.845C626.176 120.054 626.571 118.106 626.571 115.999C626.571 113.418 625.913 111.496 624.596 110.232C623.332 108.915 621.647 108.257 619.54 108.257C617.433 108.257 615.432 108.757 613.536 109.758C611.693 110.706 609.744 112.075 607.69 113.866L601.923 107.309C603.45 105.94 605.057 104.702 606.742 103.596C608.427 102.437 610.376 101.516 612.588 100.831C614.853 100.146 617.46 99.804 620.409 99.804C623.832 99.804 626.782 100.462 629.257 101.779C631.785 103.043 633.734 104.807 635.103 107.072C636.472 109.337 637.157 111.97 637.157 114.972C637.157 117.289 636.815 119.422 636.13 121.371C635.498 123.32 634.55 125.242 633.286 127.138C632.022 129.034 630.521 130.983 628.783 132.984C627.045 134.985 625.096 137.171 622.937 139.541L615.274 147.915V148.389H638.737V157Z" fill="#131313"/>
<path d="M591.541 195.148L587.239 208H585.619L581.317 195.148H582.991L585.673 203.392C585.793 203.74 585.895 204.076 585.979 204.4C586.075 204.724 586.159 205.036 586.231 205.336C586.315 205.624 586.381 205.912 586.429 206.2C586.477 205.912 586.537 205.618 586.609 205.318C586.681 205.018 586.765 204.706 586.861 204.382C586.969 204.058 587.077 203.716 587.185 203.356L589.849 195.148H591.541ZM594.554 198.352V208H592.988V198.352H594.554ZM593.78 194.734C594.02 194.734 594.23 194.818 594.41 194.986C594.59 195.142 594.68 195.394 594.68 195.742C594.68 196.078 594.59 196.33 594.41 196.498C594.23 196.666 594.02 196.75 593.78 196.75C593.528 196.75 593.312 196.666 593.132 196.498C592.952 196.33 592.862 196.078 592.862 195.742C592.862 195.394 592.952 195.142 593.132 194.986C593.312 194.818 593.528 194.734 593.78 194.734ZM600.928 198.172C601.708 198.172 602.38 198.352 602.944 198.712C603.508 199.072 603.94 199.582 604.24 200.242C604.552 200.89 604.708 201.652 604.708 202.528V203.482H598.516C598.54 204.574 598.798 205.408 599.29 205.984C599.782 206.548 600.472 206.83 601.36 206.83C601.936 206.83 602.446 206.776 602.89 206.668C603.346 206.548 603.814 206.38 604.294 206.164V207.55C603.826 207.766 603.364 207.922 602.908 208.018C602.464 208.126 601.924 208.18 601.288 208.18C600.424 208.18 599.662 207.994 599.002 207.622C598.342 207.25 597.826 206.698 597.454 205.966C597.082 205.222 596.896 204.316 596.896 203.248C596.896 202.192 597.064 201.286 597.4 200.53C597.736 199.774 598.204 199.192 598.804 198.784C599.416 198.376 600.124 198.172 600.928 198.172ZM600.928 199.468C600.232 199.468 599.68 199.714 599.272 200.206C598.864 200.686 598.624 201.358 598.552 202.222H603.088C603.088 201.67 603.01 201.19 602.854 200.782C602.698 200.374 602.458 200.056 602.134 199.828C601.822 199.588 601.42 199.468 600.928 199.468ZM612.586 202.546C612.514 202.294 612.442 202.048 612.37 201.808C612.31 201.556 612.25 201.322 612.19 201.106C612.13 200.878 612.076 200.668 612.028 200.476C611.992 200.284 611.962 200.122 611.938 199.99H611.866C611.842 200.122 611.806 200.284 611.758 200.476C611.722 200.668 611.674 200.878 611.614 201.106C611.566 201.334 611.506 201.574 611.434 201.826C611.374 202.066 611.308 202.312 611.236 202.564L609.67 207.982H607.906L605.404 198.334H607.024L608.266 203.482C608.35 203.83 608.428 204.184 608.5 204.544C608.584 204.892 608.656 205.228 608.716 205.552C608.776 205.864 608.818 206.134 608.842 206.362H608.914C608.938 206.218 608.968 206.038 609.004 205.822C609.052 205.606 609.1 205.378 609.148 205.138C609.208 204.898 609.268 204.658 609.328 204.418C609.388 204.178 609.448 203.962 609.508 203.77L611.074 198.334H612.802L614.314 203.77C614.398 204.046 614.476 204.34 614.548 204.652C614.632 204.964 614.704 205.27 614.764 205.57C614.836 205.858 614.884 206.116 614.908 206.344H614.962C614.986 206.14 615.028 205.888 615.088 205.588C615.148 205.276 615.22 204.94 615.304 204.58C615.4 204.208 615.49 203.842 615.574 203.482L616.834 198.334H618.418L615.898 207.982H614.08L612.586 202.546ZM632.193 208L630.789 204.022H626.019L624.633 208H622.995L627.675 195.094H629.187L633.849 208H632.193ZM628.989 198.694C628.965 198.598 628.911 198.424 628.827 198.172C628.755 197.92 628.677 197.662 628.593 197.398C628.521 197.122 628.461 196.912 628.413 196.768C628.353 197.008 628.287 197.254 628.215 197.506C628.155 197.746 628.095 197.968 628.035 198.172C627.975 198.376 627.921 198.55 627.873 198.694L626.541 202.582H630.321L628.989 198.694ZM636.846 208H635.28V194.32H636.846V208ZM641.259 208H639.693V194.32H641.259V208Z" fill="#60BA8A"/>
<path d="M651.98 206.7L656.9 201.78C656.939 201.744 656.969 201.701 656.99 201.653C657.011 201.604 657.022 201.552 657.022 201.5C657.022 201.447 657.011 201.396 656.99 201.347C656.969 201.299 656.939 201.256 656.9 201.22L651.98 196.3" stroke="#60BA8A" stroke-width="1.92" stroke-linecap="round" stroke-linejoin="round"/>
<g filter="url(#filter3_d_234_1574)">
<rect x="753" y="17" width="224" height="224" rx="16" fill="white"/>
</g>
<path d="M799.68 53.84C799.68 54.9467 799.547 55.9533 799.28 56.86C799.027 57.7533 798.633 58.5267 798.1 59.18C797.58 59.8333 796.927 60.3333 796.14 60.68C795.353 61.0267 794.44 61.2 793.4 61.2C792.333 61.2 791.4 61.0267 790.6 60.68C789.813 60.32 789.16 59.82 788.64 59.18C788.12 58.5267 787.733 57.7467 787.48 56.84C787.227 55.9333 787.1 54.9267 787.1 53.82C787.1 52.3533 787.327 51.0733 787.78 49.98C788.247 48.8867 788.947 48.0333 789.88 47.42C790.813 46.8067 791.993 46.5 793.42 46.5C794.807 46.5 795.96 46.8067 796.88 47.42C797.813 48.02 798.513 48.8733 798.98 49.98C799.447 51.0733 799.68 52.36 799.68 53.84ZM789.44 53.84C789.44 54.9867 789.573 55.9733 789.84 56.8C790.12 57.6133 790.553 58.2467 791.14 58.7C791.74 59.14 792.493 59.36 793.4 59.36C794.32 59.36 795.067 59.14 795.64 58.7C796.227 58.2467 796.653 57.6133 796.92 56.8C797.2 55.9733 797.34 54.9867 797.34 53.84C797.34 52.12 797.027 50.78 796.4 49.82C795.773 48.8467 794.78 48.36 793.42 48.36C792.5 48.36 791.74 48.58 791.14 49.02C790.553 49.46 790.12 50.0867 789.84 50.9C789.573 51.7133 789.44 52.6933 789.44 53.84ZM807.585 50.02C808.758 50.02 809.658 50.3333 810.285 50.96C810.925 51.5867 811.245 52.5933 811.245 53.98V61H809.085V54.28C809.085 53.44 808.918 52.8133 808.585 52.4C808.265 51.9733 807.765 51.76 807.085 51.76C806.085 51.76 805.398 52.0867 805.025 52.74C804.652 53.3933 804.465 54.3333 804.465 55.56V61H802.305V50.22H804.005L804.305 51.66H804.425C804.652 51.2867 804.925 50.98 805.245 50.74C805.565 50.5 805.925 50.32 806.325 50.2C806.725 50.08 807.145 50.02 807.585 50.02ZM817.719 50.02C818.373 50.02 818.953 50.1533 819.459 50.42C819.979 50.6867 820.419 51.0933 820.779 51.64H820.859L821.099 50.22H822.879V61.14C822.879 62.1533 822.706 63.0067 822.359 63.7C822.013 64.3933 821.486 64.9133 820.779 65.26C820.073 65.62 819.179 65.8 818.099 65.8C817.353 65.8 816.673 65.7467 816.059 65.64C815.459 65.5333 814.899 65.3667 814.379 65.14V63.28C814.726 63.4667 815.099 63.62 815.499 63.74C815.899 63.8733 816.319 63.9667 816.759 64.02C817.213 64.0867 817.679 64.12 818.159 64.12C818.986 64.12 819.619 63.8667 820.059 63.36C820.513 62.8667 820.739 62.1667 820.739 61.26V60.9C820.739 60.7267 820.746 60.5 820.759 60.22C820.773 59.9267 820.786 59.7133 820.799 59.58H820.719C820.386 60.14 819.966 60.5533 819.459 60.82C818.966 61.0733 818.379 61.2 817.699 61.2C816.446 61.2 815.459 60.7133 814.739 59.74C814.019 58.7533 813.659 57.3867 813.659 55.64C813.659 54.4667 813.819 53.4667 814.139 52.64C814.473 51.8 814.939 51.1533 815.539 50.7C816.153 50.2467 816.879 50.02 817.719 50.02ZM818.239 51.78C817.733 51.78 817.306 51.9333 816.959 52.24C816.613 52.5333 816.346 52.9667 816.159 53.54C815.986 54.1133 815.899 54.82 815.899 55.66C815.899 56.9133 816.099 57.8667 816.499 58.52C816.899 59.1733 817.486 59.5 818.259 59.5C818.713 59.5 819.099 59.4333 819.419 59.3C819.739 59.1667 819.999 58.96 820.199 58.68C820.413 58.4 820.566 58.0467 820.659 57.62C820.766 57.18 820.819 56.6533 820.819 56.04V55.64C820.819 54.72 820.726 53.98 820.539 53.42C820.366 52.8467 820.086 52.4333 819.699 52.18C819.326 51.9133 818.839 51.78 818.239 51.78ZM834.978 55.6C834.978 56.4933 834.865 57.2867 834.638 57.98C834.412 58.6733 834.085 59.26 833.658 59.74C833.245 60.22 832.738 60.5867 832.138 60.84C831.538 61.08 830.865 61.2 830.118 61.2C829.438 61.2 828.805 61.08 828.218 60.84C827.632 60.5867 827.125 60.22 826.698 59.74C826.272 59.26 825.938 58.6733 825.698 57.98C825.472 57.2867 825.358 56.4867 825.358 55.58C825.358 54.3933 825.552 53.3867 825.938 52.56C826.325 51.7333 826.878 51.1067 827.598 50.68C828.332 50.24 829.198 50.02 830.198 50.02C831.132 50.02 831.958 50.24 832.678 50.68C833.398 51.1067 833.958 51.7333 834.358 52.56C834.772 53.3867 834.978 54.4 834.978 55.6ZM827.598 55.6C827.598 56.4 827.685 57.0933 827.858 57.68C828.045 58.2533 828.325 58.6933 828.698 59C829.085 59.3067 829.572 59.46 830.158 59.46C830.758 59.46 831.245 59.3067 831.618 59C832.005 58.6933 832.285 58.2533 832.458 57.68C832.645 57.0933 832.738 56.4 832.738 55.6C832.738 54.7733 832.645 54.08 832.458 53.52C832.272 52.96 831.992 52.5333 831.618 52.24C831.245 51.9333 830.752 51.78 830.138 51.78C829.245 51.78 828.598 52.1133 828.198 52.78C827.798 53.4467 827.598 54.3867 827.598 55.6ZM839.622 50.22V61H837.442V50.22H839.622ZM838.562 46.12C838.882 46.12 839.162 46.2133 839.402 46.4C839.642 46.5867 839.762 46.9 839.762 47.34C839.762 47.7667 839.642 48.08 839.402 48.28C839.162 48.4667 838.882 48.56 838.562 48.56C838.215 48.56 837.922 48.4667 837.682 48.28C837.442 48.08 837.322 47.7667 837.322 47.34C837.322 46.9 837.442 46.5867 837.682 46.4C837.922 46.2133 838.215 46.12 838.562 46.12ZM847.937 50.02C849.11 50.02 850.01 50.3333 850.637 50.96C851.277 51.5867 851.597 52.5933 851.597 53.98V61H849.437V54.28C849.437 53.44 849.27 52.8133 848.937 52.4C848.617 51.9733 848.117 51.76 847.437 51.76C846.437 51.76 845.75 52.0867 845.377 52.74C845.003 53.3933 844.817 54.3333 844.817 55.56V61H842.657V50.22H844.357L844.657 51.66H844.777C845.003 51.2867 845.277 50.98 845.597 50.74C845.917 50.5 846.277 50.32 846.677 50.2C847.077 50.08 847.497 50.02 847.937 50.02ZM858.071 50.02C858.724 50.02 859.304 50.1533 859.811 50.42C860.331 50.6867 860.771 51.0933 861.131 51.64H861.211L861.451 50.22H863.231V61.14C863.231 62.1533 863.057 63.0067 862.711 63.7C862.364 64.3933 861.837 64.9133 861.131 65.26C860.424 65.62 859.531 65.8 858.451 65.8C857.704 65.8 857.024 65.7467 856.411 65.64C855.811 65.5333 855.251 65.3667 854.731 65.14V63.28C855.077 63.4667 855.451 63.62 855.851 63.74C856.251 63.8733 856.671 63.9667 857.111 64.02C857.564 64.0867 858.031 64.12 858.511 64.12C859.337 64.12 859.971 63.8667 860.411 63.36C860.864 62.8667 861.091 62.1667 861.091 61.26V60.9C861.091 60.7267 861.097 60.5 861.111 60.22C861.124 59.9267 861.137 59.7133 861.151 59.58H861.071C860.737 60.14 860.317 60.5533 859.811 60.82C859.317 61.0733 858.731 61.2 858.051 61.2C856.797 61.2 855.811 60.7133 855.091 59.74C854.371 58.7533 854.011 57.3867 854.011 55.64C854.011 54.4667 854.171 53.4667 854.491 52.64C854.824 51.8 855.291 51.1533 855.891 50.7C856.504 50.2467 857.231 50.02 858.071 50.02ZM858.591 51.78C858.084 51.78 857.657 51.9333 857.311 52.24C856.964 52.5333 856.697 52.9667 856.511 53.54C856.337 54.1133 856.251 54.82 856.251 55.66C856.251 56.9133 856.451 57.8667 856.851 58.52C857.251 59.1733 857.837 59.5 858.611 59.5C859.064 59.5 859.451 59.4333 859.771 59.3C860.091 59.1667 860.351 58.96 860.551 58.68C860.764 58.4 860.917 58.0467 861.011 57.62C861.117 57.18 861.171 56.6533 861.171 56.04V55.64C861.171 54.72 861.077 53.98 860.891 53.42C860.717 52.8467 860.437 52.4333 860.051 52.18C859.677 51.9133 859.191 51.78 858.591 51.78ZM875.233 46.72C876.379 46.72 877.326 46.8733 878.073 47.18C878.819 47.4867 879.373 47.9467 879.733 48.56C880.106 49.16 880.293 49.92 880.293 50.84C880.293 51.5733 880.166 52.1933 879.913 52.7C879.673 53.1933 879.353 53.6 878.953 53.92C878.566 54.2267 878.146 54.4733 877.693 54.66L881.473 61H878.953L875.773 55.22H873.593V61H871.373V46.72H875.233ZM875.133 48.56H873.593V53.42H875.173C875.826 53.42 876.359 53.3267 876.773 53.14C877.199 52.9533 877.513 52.6733 877.713 52.3C877.926 51.9267 878.033 51.4667 878.033 50.92C878.033 50.3467 877.926 49.8933 877.713 49.56C877.513 49.2133 877.193 48.96 876.753 48.8C876.326 48.64 875.786 48.56 875.133 48.56ZM887.225 50.02C888.118 50.02 888.892 50.22 889.545 50.62C890.198 51.0067 890.698 51.5667 891.045 52.3C891.405 53.0333 891.585 53.9 891.585 54.9V56.06H884.805C884.832 57.1667 885.098 58.0133 885.605 58.6C886.112 59.1867 886.825 59.48 887.745 59.48C888.398 59.48 888.978 59.42 889.485 59.3C890.005 59.1667 890.532 58.9733 891.065 58.72V60.48C890.558 60.72 890.038 60.9 889.505 61.02C888.985 61.14 888.352 61.2 887.605 61.2C886.632 61.2 885.765 60.9933 885.005 60.58C884.245 60.1667 883.652 59.5533 883.225 58.74C882.798 57.9133 882.585 56.9 882.585 55.7C882.585 54.4867 882.778 53.46 883.165 52.62C883.552 51.78 884.092 51.14 884.785 50.7C885.492 50.2467 886.305 50.02 887.225 50.02ZM887.225 51.66C886.545 51.66 885.998 51.9067 885.585 52.4C885.172 52.8933 884.932 53.5933 884.865 54.5H889.445C889.445 53.94 889.365 53.4467 889.205 53.02C889.045 52.5933 888.798 52.26 888.465 52.02C888.145 51.78 887.732 51.66 887.225 51.66ZM900.504 61.22C900.504 60.9667 900.511 60.6867 900.524 60.38C900.538 60.0733 900.564 59.8 900.604 59.56H900.484C900.204 60.0133 899.818 60.4 899.324 60.72C898.844 61.04 898.218 61.2 897.444 61.2C896.258 61.2 895.291 60.7333 894.544 59.8C893.811 58.8667 893.444 57.4733 893.444 55.62C893.444 54.3933 893.611 53.3667 893.944 52.54C894.291 51.7 894.771 51.0733 895.384 50.66C895.998 50.2333 896.704 50.02 897.504 50.02C898.278 50.02 898.904 50.18 899.384 50.5C899.878 50.82 900.271 51.2067 900.564 51.66H900.644L900.884 50.22H902.664V65.8H900.504V61.22ZM898.064 59.48C898.678 59.48 899.164 59.3533 899.524 59.1C899.898 58.8467 900.164 58.4667 900.324 57.96C900.498 57.44 900.584 56.7933 900.584 56.02V55.66C900.584 54.38 900.398 53.4133 900.024 52.76C899.664 52.0933 898.998 51.76 898.024 51.76C897.238 51.76 896.651 52.1133 896.264 52.82C895.878 53.5133 895.684 54.4667 895.684 55.68C895.684 56.8933 895.878 57.8333 896.264 58.5C896.664 59.1533 897.264 59.48 898.064 59.48ZM914.564 50.22V61H912.864L912.564 59.58H912.444C912.244 59.9533 911.97 60.26 911.624 60.5C911.29 60.74 910.924 60.9133 910.524 61.02C910.124 61.14 909.71 61.2 909.284 61.2C908.497 61.2 907.83 61.0667 907.284 60.8C906.75 60.52 906.337 60.0933 906.044 59.52C905.764 58.9333 905.624 58.1867 905.624 57.28V50.22H907.804V56.96C907.804 57.8 907.964 58.4267 908.284 58.84C908.604 59.2533 909.104 59.46 909.784 59.46C910.45 59.46 910.97 59.3133 911.344 59.02C911.73 58.7267 912.004 58.3 912.164 57.74C912.324 57.1667 912.404 56.48 912.404 55.68V50.22H914.564ZM921.678 50.02C922.571 50.02 923.345 50.22 923.998 50.62C924.651 51.0067 925.151 51.5667 925.498 52.3C925.858 53.0333 926.038 53.9 926.038 54.9V56.06H919.258C919.285 57.1667 919.551 58.0133 920.058 58.6C920.565 59.1867 921.278 59.48 922.198 59.48C922.851 59.48 923.431 59.42 923.938 59.3C924.458 59.1667 924.985 58.9733 925.518 58.72V60.48C925.011 60.72 924.491 60.9 923.958 61.02C923.438 61.14 922.805 61.2 922.058 61.2C921.085 61.2 920.218 60.9933 919.458 60.58C918.698 60.1667 918.105 59.5533 917.678 58.74C917.251 57.9133 917.038 56.9 917.038 55.7C917.038 54.4867 917.231 53.46 917.618 52.62C918.005 51.78 918.545 51.14 919.238 50.7C919.945 50.2467 920.758 50.02 921.678 50.02ZM921.678 51.66C920.998 51.66 920.451 51.9067 920.038 52.4C919.625 52.8933 919.385 53.5933 919.318 54.5H923.898C923.898 53.94 923.818 53.4467 923.658 53.02C923.498 52.5933 923.251 52.26 922.918 52.02C922.598 51.78 922.185 51.66 921.678 51.66ZM935.318 57.96C935.318 58.6667 935.158 59.26 934.838 59.74C934.518 60.22 934.051 60.5867 933.438 60.84C932.824 61.08 932.071 61.2 931.178 61.2C930.471 61.2 929.851 61.14 929.318 61.02C928.798 60.9133 928.318 60.7533 927.878 60.54V58.68C928.344 58.9067 928.878 59.1133 929.478 59.3C930.078 59.4733 930.651 59.56 931.198 59.56C931.904 59.56 932.418 59.4333 932.738 59.18C933.058 58.9267 933.218 58.5867 933.218 58.16C933.218 57.92 933.151 57.7067 933.018 57.52C932.898 57.32 932.664 57.12 932.318 56.92C931.971 56.7067 931.471 56.4667 930.818 56.2C930.178 55.92 929.638 55.6467 929.198 55.38C928.771 55.1 928.438 54.7733 928.198 54.4C927.971 54.0133 927.858 53.52 927.858 52.92C927.858 51.9867 928.218 51.2733 928.938 50.78C929.658 50.2733 930.598 50.02 931.758 50.02C932.398 50.02 932.991 50.0867 933.538 50.22C934.084 50.34 934.618 50.5267 935.138 50.78L934.478 52.4C934.171 52.2533 933.858 52.1333 933.538 52.04C933.231 51.9333 932.924 51.8467 932.618 51.78C932.311 51.7133 932.004 51.68 931.698 51.68C931.124 51.68 930.691 51.78 930.398 51.98C930.104 52.18 929.958 52.46 929.958 52.82C929.958 53.0867 930.024 53.3133 930.158 53.5C930.304 53.6867 930.551 53.8733 930.898 54.06C931.258 54.2467 931.751 54.4667 932.378 54.72C933.004 54.9733 933.538 55.2333 933.978 55.5C934.418 55.7667 934.751 56.0933 934.978 56.48C935.204 56.8667 935.318 57.36 935.318 57.96ZM941.457 59.48C941.737 59.48 942.011 59.4533 942.277 59.4C942.544 59.3467 942.777 59.2867 942.977 59.22V60.82C942.751 60.9267 942.451 61.0133 942.077 61.08C941.717 61.16 941.337 61.2 940.937 61.2C940.377 61.2 939.864 61.1 939.397 60.9C938.931 60.7 938.557 60.3533 938.277 59.86C937.997 59.3667 937.857 58.68 937.857 57.8V51.84H936.477V50.88L937.957 50.08L938.697 47.8H940.037V50.22H942.897V51.84H940.037V57.76C940.037 58.3467 940.171 58.78 940.437 59.06C940.704 59.34 941.044 59.48 941.457 59.48Z" fill="black"/>
<path d="M874.178 157H863.671V121.845C863.671 120.686 863.671 119.501 863.671 118.29C863.724 117.079 863.75 115.867 863.75 114.656C863.803 113.392 863.855 112.233 863.908 111.18C863.381 111.707 862.776 112.339 862.091 113.076C861.459 113.813 860.748 114.524 859.958 115.209L854.112 120.265L848.74 114.103L865.172 100.594H874.178V157Z" fill="#131313"/>
<path d="M835.541 195.148L831.239 208H829.619L825.317 195.148H826.991L829.673 203.392C829.793 203.74 829.895 204.076 829.979 204.4C830.075 204.724 830.159 205.036 830.231 205.336C830.315 205.624 830.381 205.912 830.429 206.2C830.477 205.912 830.537 205.618 830.609 205.318C830.681 205.018 830.765 204.706 830.861 204.382C830.969 204.058 831.077 203.716 831.185 203.356L833.849 195.148H835.541ZM838.554 198.352V208H836.988V198.352H838.554ZM837.78 194.734C838.02 194.734 838.23 194.818 838.41 194.986C838.59 195.142 838.68 195.394 838.68 195.742C838.68 196.078 838.59 196.33 838.41 196.498C838.23 196.666 838.02 196.75 837.78 196.75C837.528 196.75 837.312 196.666 837.132 196.498C836.952 196.33 836.862 196.078 836.862 195.742C836.862 195.394 836.952 195.142 837.132 194.986C837.312 194.818 837.528 194.734 837.78 194.734ZM844.928 198.172C845.708 198.172 846.38 198.352 846.944 198.712C847.508 199.072 847.94 199.582 848.24 200.242C848.552 200.89 848.708 201.652 848.708 202.528V203.482H842.516C842.54 204.574 842.798 205.408 843.29 205.984C843.782 206.548 844.472 206.83 845.36 206.83C845.936 206.83 846.446 206.776 846.89 206.668C847.346 206.548 847.814 206.38 848.294 206.164V207.55C847.826 207.766 847.364 207.922 846.908 208.018C846.464 208.126 845.924 208.18 845.288 208.18C844.424 208.18 843.662 207.994 843.002 207.622C842.342 207.25 841.826 206.698 841.454 205.966C841.082 205.222 840.896 204.316 840.896 203.248C840.896 202.192 841.064 201.286 841.4 200.53C841.736 199.774 842.204 199.192 842.804 198.784C843.416 198.376 844.124 198.172 844.928 198.172ZM844.928 199.468C844.232 199.468 843.68 199.714 843.272 200.206C842.864 200.686 842.624 201.358 842.552 202.222H847.088C847.088 201.67 847.01 201.19 846.854 200.782C846.698 200.374 846.458 200.056 846.134 199.828C845.822 199.588 845.42 199.468 844.928 199.468ZM856.586 202.546C856.514 202.294 856.442 202.048 856.37 201.808C856.31 201.556 856.25 201.322 856.19 201.106C856.13 200.878 856.076 200.668 856.028 200.476C855.992 200.284 855.962 200.122 855.938 199.99H855.866C855.842 200.122 855.806 200.284 855.758 200.476C855.722 200.668 855.674 200.878 855.614 201.106C855.566 201.334 855.506 201.574 855.434 201.826C855.374 202.066 855.308 202.312 855.236 202.564L853.67 207.982H851.906L849.404 198.334H851.024L852.266 203.482C852.35 203.83 852.428 204.184 852.5 204.544C852.584 204.892 852.656 205.228 852.716 205.552C852.776 205.864 852.818 206.134 852.842 206.362H852.914C852.938 206.218 852.968 206.038 853.004 205.822C853.052 205.606 853.1 205.378 853.148 205.138C853.208 204.898 853.268 204.658 853.328 204.418C853.388 204.178 853.448 203.962 853.508 203.77L855.074 198.334H856.802L858.314 203.77C858.398 204.046 858.476 204.34 858.548 204.652C858.632 204.964 858.704 205.27 858.764 205.57C858.836 205.858 858.884 206.116 858.908 206.344H858.962C858.986 206.14 859.028 205.888 859.088 205.588C859.148 205.276 859.22 204.94 859.304 204.58C859.4 204.208 859.49 203.842 859.574 203.482L860.834 198.334H862.418L859.898 207.982H858.08L856.586 202.546ZM876.193 208L874.789 204.022H870.019L868.633 208H866.995L871.675 195.094H873.187L877.849 208H876.193ZM872.989 198.694C872.965 198.598 872.911 198.424 872.827 198.172C872.755 197.92 872.677 197.662 872.593 197.398C872.521 197.122 872.461 196.912 872.413 196.768C872.353 197.008 872.287 197.254 872.215 197.506C872.155 197.746 872.095 197.968 872.035 198.172C871.975 198.376 871.921 198.55 871.873 198.694L870.541 202.582H874.321L872.989 198.694ZM880.846 208H879.28V194.32H880.846V208ZM885.259 208H883.693V194.32H885.259V208Z" fill="#60BA8A"/>
<path d="M895.98 206.7L900.9 201.78C900.939 201.744 900.969 201.701 900.99 201.653C901.011 201.604 901.022 201.552 901.022 201.5C901.022 201.447 901.011 201.396 900.99 201.347C900.969 201.299 900.939 201.256 900.9 201.22L895.98 196.3" stroke="#60BA8A" stroke-width="1.92" stroke-linecap="round" stroke-linejoin="round"/>
<defs>
<filter id="filter0_d_234_1574" x="0" y="0" width="266" height="266" filterUnits="userSpaceOnUse" color-interpolation-filters="sRGB">
<feFlood flood-opacity="0" result="BackgroundImageFix"/>
<feColorMatrix in="SourceAlpha" type="matrix" values="0 0 0 0 0 0 0 0 0 0 0 0 0 0 0 0 0 0 127 0" result="hardAlpha"/>
<feMorphology radius="2" operator="erode" in="SourceAlpha" result="effect1_dropShadow_234_1574"/>
<feOffset dy="4"/>
<feGaussianBlur stdDeviation="11.5"/>
<feComposite in2="hardAlpha" operator="out"/>
<feColorMatrix type="matrix" values="0 0 0 0 0 0 0 0 0 0 0 0 0 0 0 0 0 0 0.15 0"/>
<feBlend mode="normal" in2="BackgroundImageFix" result="effect1_dropShadow_234_1574"/>
<feBlend mode="normal" in="SourceGraphic" in2="effect1_dropShadow_234_1574" result="shape"/>
</filter>
<filter id="filter1_d_234_1574" x="244" y="0" width="266" height="266" filterUnits="userSpaceOnUse" color-interpolation-filters="sRGB">
<feFlood flood-opacity="0" result="BackgroundImageFix"/>
<feColorMatrix in="SourceAlpha" type="matrix" values="0 0 0 0 0 0 0 0 0 0 0 0 0 0 0 0 0 0 127 0" result="hardAlpha"/>
<feMorphology radius="2" operator="erode" in="SourceAlpha" result="effect1_dropShadow_234_1574"/>
<feOffset dy="4"/>
<feGaussianBlur stdDeviation="11.5"/>
<feComposite in2="hardAlpha" operator="out"/>
<feColorMatrix type="matrix" values="0 0 0 0 0 0 0 0 0 0 0 0 0 0 0 0 0 0 0.15 0"/>
<feBlend mode="normal" in2="BackgroundImageFix" result="effect1_dropShadow_234_1574"/>
<feBlend mode="normal" in="SourceGraphic" in2="effect1_dropShadow_234_1574" result="shape"/>
</filter>
<filter id="filter2_d_234_1574" x="488" y="0" width="266" height="266" filterUnits="userSpaceOnUse" color-interpolation-filters="sRGB">
<feFlood flood-opacity="0" result="BackgroundImageFix"/>
<feColorMatrix in="SourceAlpha" type="matrix" values="0 0 0 0 0 0 0 0 0 0 0 0 0 0 0 0 0 0 127 0" result="hardAlpha"/>
<feMorphology radius="2" operator="erode" in="SourceAlpha" result="effect1_dropShadow_234_1574"/>
<feOffset dy="4"/>
<feGaussianBlur stdDeviation="11.5"/>
<feComposite in2="hardAlpha" operator="out"/>
<feColorMatrix type="matrix" values="0 0 0 0 0 0 0 0 0 0 0 0 0 0 0 0 0 0 0.15 0"/>
<feBlend mode="normal" in2="BackgroundImageFix" result="effect1_dropShadow_234_1574"/>
<feBlend mode="normal" in="SourceGraphic" in2="effect1_dropShadow_234_1574" result="shape"/>
</filter>
<filter id="filter3_d_234_1574" x="732" y="0" width="266" height="266" filterUnits="userSpaceOnUse" color-interpolation-filters="sRGB">
<feFlood flood-opacity="0" result="BackgroundImageFix"/>
<feColorMatrix in="SourceAlpha" type="matrix" values="0 0 0 0 0 0 0 0 0 0 0 0 0 0 0 0 0 0 127 0" result="hardAlpha"/>
<feMorphology radius="2" operator="erode" in="SourceAlpha" result="effect1_dropShadow_234_1574"/>
<feOffset dy="4"/>
<feGaussianBlur stdDeviation="11.5"/>
<feComposite in2="hardAlpha" operator="out"/>
<feColorMatrix type="matrix" values="0 0 0 0 0 0 0 0 0 0 0 0 0 0 0 0 0 0 0.15 0"/>
<feBlend mode="normal" in2="BackgroundImageFix" result="effect1_dropShadow_234_1574"/>
<feBlend mode="normal" in="SourceGraphic" in2="effect1_dropShadow_234_1574" result="shape"/>
</filter>
</defs>
</svg>
