<svg width="55" height="55" viewBox="0 0 55 55" fill="none" xmlns="http://www.w3.org/2000/svg">
<circle cx="25.3846" cy="26.3846" r="25.3846" fill="#D1EBD5"/>
<g clip-path="url(#clip0_234_1556)">
<path fill-rule="evenodd" clip-rule="evenodd" d="M17.1254 39.9356L24.5134 41.1662C25.0667 41.2595 25.6335 41.2236 26.1707 41.0622L36.5679 37.9421C38.3906 37.3954 39.4346 35.4861 38.9119 33.6568V33.6555C38.3945 31.8461 36.532 30.7769 34.7092 31.2434L29.2293 32.6461C28.6947 32.7834 28.3719 33.3287 28.5079 33.8635C28.6451 34.3981 29.1904 34.7209 29.7253 34.585L35.2052 33.181C35.9786 32.9836 36.7692 33.437 36.9891 34.2051V34.2064C37.2119 34.9837 36.7677 35.7943 35.9931 36.0278L25.596 39.1466C25.3507 39.22 25.0933 39.2359 24.8426 39.1946L17.4535 37.9626C16.9095 37.872 16.3934 38.2399 16.3028 38.7854C16.2122 39.3293 16.58 39.8454 17.1255 39.9361L17.1254 39.9356Z" fill="black"/>
<path fill-rule="evenodd" clip-rule="evenodd" d="M17.5237 30.5498C17.5237 30.5498 20.3757 29.8565 21.9076 29.4844C22.2916 29.3911 22.6943 29.4364 23.0463 29.6123L27.7248 31.9522C28.0889 32.1335 28.3554 32.4629 28.4608 32.8549C28.5648 33.2482 28.4954 33.6657 28.2702 34.0042L28.2688 34.0069C27.8929 34.5696 27.1568 34.7656 26.5528 34.4629L23.0675 32.7203C22.5742 32.4737 21.9729 32.6737 21.7262 33.1683C21.4795 33.6616 21.6795 34.2629 22.1728 34.5096C22.1728 34.5096 24.1168 35.4817 25.6581 36.2509C27.1648 37.0056 28.998 36.519 29.9329 35.1164L29.9342 35.1137C30.4782 34.2976 30.645 33.2885 30.3929 32.3416C30.1423 31.3949 29.4956 30.6016 28.6195 30.163L23.9409 27.8244C23.1661 27.4364 22.2782 27.3364 21.4356 27.5404C19.9023 27.9125 17.0516 28.6059 17.0516 28.6059C16.5157 28.7364 16.1849 29.278 16.3157 29.8139C16.4463 30.3499 16.9878 30.6793 17.5237 30.5499L17.5237 30.5498Z" fill="black"/>
<path fill-rule="evenodd" clip-rule="evenodd" d="M18.2883 28.2819C18.2883 27.7298 17.8403 27.2819 17.2883 27.2819H11.9551C11.4031 27.2819 10.9551 27.7298 10.9551 28.2819V40.2819C10.9551 40.8339 11.4031 41.2819 11.9551 41.2819H17.2883C17.8403 41.2819 18.2883 40.8339 18.2883 40.2819V28.2819ZM16.2883 29.2819V39.2819H12.9551V29.2819H16.2883Z" fill="black"/>
<path d="M33.0695 10H26.8037C26.2844 10 25.7864 10.2063 25.4192 10.5735C25.052 10.9407 24.8457 11.4387 24.8457 11.958V25.2727C24.8457 25.792 25.052 26.2901 25.4192 26.6573C25.7864 27.0245 26.2844 27.2308 26.8037 27.2308H33.0695C33.5888 27.2308 34.0868 27.0245 34.454 26.6573C34.8212 26.2901 35.0275 25.792 35.0275 25.2727V11.958C35.0275 11.4387 34.8212 10.9407 34.454 10.5735C34.0868 10.2063 33.5888 10 33.0695 10ZM29.9366 26.4476C29.2865 26.4476 28.7618 25.9228 28.7618 25.2727C28.7618 24.6227 29.2865 24.0979 29.9366 24.0979C30.5867 24.0979 31.1114 24.6227 31.1114 25.2727C31.1114 25.9228 30.5867 26.4476 29.9366 26.4476ZM33.4611 23.3147H26.4121V12.3497H33.4611V23.3147Z" fill="black"/>
</g>
<defs>
<clipPath id="clip0_234_1556">
<rect width="45.9487" height="45.9487" fill="white" transform="translate(2 4)"/>
</clipPath>
</defs>
</svg>
