<svg width="55" height="55" viewBox="0 0 55 55" fill="none" xmlns="http://www.w3.org/2000/svg">
<circle cx="25.3846" cy="25.3846" r="25.3846" fill="#D1EBD5"/>
<g clip-path="url(#clip0_234_1535)">
<path d="M30.3194 9.87183H19.0374C18.1023 9.87183 17.2055 10.2433 16.5444 10.9045C15.8832 11.5656 15.5117 12.4624 15.5117 13.3975V37.3718C15.5117 38.3069 15.8832 39.2036 16.5444 39.8648C17.2055 40.526 18.1023 40.8975 19.0374 40.8975H30.3194C31.2545 40.8975 32.1512 40.526 32.8124 39.8648C33.4736 39.2036 33.8451 38.3069 33.8451 37.3718V13.3975C33.8451 12.4624 33.4736 11.5656 32.8124 10.9045C32.1512 10.2433 31.2545 9.87183 30.3194 9.87183ZM24.6784 39.4872C23.5079 39.4872 22.563 38.5423 22.563 37.3718C22.563 36.2013 23.5079 35.2564 24.6784 35.2564C25.8489 35.2564 26.7938 36.2013 26.7938 37.3718C26.7938 38.5423 25.8489 39.4872 24.6784 39.4872ZM31.0245 33.8462H18.3322V14.1026H31.0245V33.8462Z" fill="black"/>
<path fill-rule="evenodd" clip-rule="evenodd" d="M25.958 27.2399C26.5742 27.2418 27.1909 27.2428 27.8069 27.2351C28.0113 27.2308 28.17 26.9793 28.0627 26.788L27.6292 26.0369C27.6292 26.0369 27.5166 25.8277 27.562 25.6125C27.6142 25.3669 27.8347 25.1673 28.0859 25.1408C28.1459 25.1349 28.1603 25.1384 28.1793 25.1384C28.3597 25.1528 28.5282 25.2409 28.6331 25.3848C28.6492 25.4076 28.6529 25.4137 28.6674 25.4375C28.9125 25.8619 29.2183 26.266 29.2847 26.7178C29.4075 27.5559 28.7158 28.4226 27.8143 28.4338C27.1965 28.4362 26.579 28.4362 25.9622 28.4349L25.9975 28.4707C25.9975 28.4707 26.1816 28.677 26.1725 28.9168C26.1565 29.359 25.548 29.6887 25.1662 29.3339C25.1609 29.3291 25.1555 29.3237 25.1502 29.3184L24.0906 28.2588C23.876 28.0359 23.8586 27.6605 24.075 27.4274C24.0799 27.4221 24.0852 27.4167 24.0906 27.4114L25.1502 26.3518C25.2526 26.2528 25.387 26.1888 25.529 26.1778C25.5729 26.1744 25.5823 26.176 25.5962 26.1768C26.0505 26.2019 26.3598 26.8096 26.0133 27.1831C26.0085 27.1884 26.0032 27.1938 25.9978 27.1991L25.9577 27.2398L25.958 27.2399ZM20.8495 24.5931L20.8003 24.6062C20.8003 24.6062 20.4016 24.6613 20.1926 24.4205C19.9355 24.1243 20.0612 23.579 20.4701 23.4543C20.4768 23.4519 20.4832 23.45 20.4899 23.4484L21.9375 23.0607C21.992 23.0476 22.0472 23.0404 22.1028 23.0404C22.3642 23.0495 22.6002 23.2362 22.6717 23.4846L23.0594 24.9321C23.1517 25.3032 22.8215 25.719 22.4282 25.6842C22.1855 25.6634 21.9704 25.4817 21.9013 25.2425L21.8882 25.1927L20.9683 26.7853C20.8634 26.967 20.9959 27.2348 21.2284 27.2359H22.0916C22.4817 27.246 22.794 27.6776 22.6514 28.0498C22.5649 28.2746 22.3348 28.4279 22.0916 28.4346C21.6054 28.4346 21.1075 28.497 20.6855 28.3332C19.8949 28.0263 19.4796 26.9889 19.9238 26.1977C20.2301 25.6612 20.5405 25.128 20.8499 24.5933L20.8495 24.5931ZM25.7169 22.692C25.4226 22.2004 25.1301 21.7073 24.842 21.2091C24.7149 20.9897 24.4026 20.8393 24.2547 21.0935L23.8231 21.8408C23.6181 22.1772 23.0811 22.2347 22.8288 21.9061C22.6856 21.7196 22.6706 21.4513 22.7849 21.2415C23.0706 20.7459 23.3136 20.1955 23.7864 19.9326C24.0045 19.8116 24.252 19.7469 24.5021 19.7437H24.5273C25.0397 19.7503 25.5379 20.0308 25.8057 20.4821C26.1132 21.009 26.4243 21.5364 26.739 22.0627L26.7457 22.037C26.7457 22.037 26.9266 21.5995 27.3146 21.5928C27.3285 21.5928 27.3421 21.5933 27.356 21.5933C27.7065 21.618 27.9912 21.969 27.9086 22.327C27.9075 22.3337 27.9056 22.3401 27.9037 22.3474L27.516 23.7949C27.4304 24.0935 27.1109 24.2948 26.8021 24.2236C26.7955 24.2225 26.7882 24.2206 26.7818 24.2188L25.3351 23.831C24.9947 23.7334 24.7884 23.309 24.9562 22.9799C25.0795 22.7377 25.3747 22.6053 25.6454 22.673L25.7174 22.6922L25.7169 22.692Z" fill="black"/>
</g>
<defs>
<clipPath id="clip0_234_1535">
<rect width="33.8462" height="33.8462" fill="white" transform="translate(8.46094 8.46155)"/>
</clipPath>
</defs>
</svg>
