<svg width="25" height="25" viewBox="0 0 25 25" fill="none" xmlns="http://www.w3.org/2000/svg">
<path fill-rule="evenodd" clip-rule="evenodd" d="M12.5 25C19.4036 25 25 19.4036 25 12.5C25 5.59644 19.4036 0 12.5 0C5.59644 0 0 5.59644 0 12.5C0 19.4036 5.59644 25 12.5 25ZM9.35165 13.5201H15.02C15.7771 13.5201 16.3645 13.414 16.782 13.2017C17.1995 12.9823 17.4083 12.5082 17.4083 11.7793C17.4083 10.9938 17.2066 10.2225 16.8032 9.46527C16.3999 8.70808 15.7913 8.09242 14.9775 7.61829C14.1708 7.13709 13.2013 6.89648 12.069 6.89648C11.1986 6.89648 10.4061 7.03802 9.69132 7.32108C8.97659 7.59706 8.37508 7.99689 7.8868 8.52055C7.39852 9.04421 7.027 9.67403 6.77225 10.41C6.51749 11.1389 6.39012 11.9314 6.39012 12.7877C6.39012 14.6064 6.9067 16.0464 7.93988 17.1079C8.97305 18.1694 10.4202 18.7002 12.2813 18.7002C13.0951 18.7002 13.8134 18.594 14.4361 18.3817C15.066 18.1694 15.5861 17.904 15.9965 17.5856C16.414 17.2601 16.7254 16.9239 16.9306 16.5772C17.1358 16.2234 17.2385 15.9155 17.2385 15.6537C17.2385 15.3565 17.1465 15.1265 16.9625 14.9637C16.7785 14.801 16.5379 14.7196 16.2407 14.7196C15.9647 14.7196 15.7524 14.7833 15.6038 14.9107C15.2429 15.2503 14.9492 15.5192 14.7227 15.7174C14.4963 15.9155 14.2486 16.1031 13.9797 16.28C13.7108 16.4498 13.4313 16.5772 13.1411 16.6621C12.8581 16.74 12.5432 16.7789 12.1964 16.7789C11.6798 16.7789 11.2057 16.6515 10.774 16.3967C10.3494 16.142 10.0062 15.7634 9.7444 15.261C9.48964 14.7585 9.35872 14.1782 9.35165 13.5201ZM14.606 11.8748H9.35165C9.45072 10.8983 9.73024 10.1623 10.1902 9.66695C10.6573 9.16452 11.2517 8.9133 11.9735 8.9133C12.7307 8.9133 13.3393 9.16098 13.7993 9.65633C14.2663 10.1446 14.5352 10.8841 14.606 11.8748Z" fill="white"/>
</svg>
