<svg width="55" height="55" viewBox="0 0 55 55" fill="none" xmlns="http://www.w3.org/2000/svg">
<circle cx="25.5" cy="25.9987" r="25.5" fill="#D1EBD5"/>
<path d="M25.4921 40.2662C33.5434 40.2662 39.9841 33.8255 39.9841 25.7742C39.9841 17.7229 33.5434 11.2821 25.4921 11.2821C17.4408 11.2821 11 17.7229 11 25.7742C11 33.8255 17.4412 40.2662 25.4921 40.2662ZM25.4921 14.503C31.772 14.503 36.7635 19.4945 36.7635 25.7744C36.7635 32.0543 31.772 37.0458 25.4921 37.0458C19.2122 37.0458 14.2206 32.0543 14.2206 25.7744C14.2206 19.4945 19.2122 14.503 25.4921 14.503Z" fill="black"/>
<path d="M28.5852 26.0853H22.9169C22.9239 26.7435 23.0549 27.3237 23.3096 27.8262C23.5714 28.3286 23.9147 28.7072 24.3392 28.962C24.7709 29.2167 25.245 29.3441 25.7616 29.3441C26.1084 29.3441 26.4233 29.3052 26.7064 29.2273C26.9965 29.1424 27.276 29.015 27.5449 28.8452C27.8138 28.6683 28.0615 28.4808 28.288 28.2826C28.5144 28.0845 28.8081 27.8156 29.169 27.4759C29.3176 27.3485 29.5299 27.2848 29.8059 27.2848C30.1031 27.2848 30.3437 27.3662 30.5277 27.529C30.7117 27.6917 30.8037 27.9217 30.8037 28.2189C30.8037 28.4808 30.7011 28.7886 30.4958 29.1424C30.2906 29.4892 29.9793 29.8253 29.5617 30.1508C29.1513 30.4693 28.6312 30.7346 28.0014 30.9469C27.3786 31.1592 26.6604 31.2654 25.8466 31.2654C23.9854 31.2654 22.5383 30.7346 21.5051 29.6731C20.4719 28.6117 19.9553 27.1716 19.9553 25.3529C19.9553 24.4967 20.0827 23.7041 20.3375 22.9752C20.5922 22.2392 20.9637 21.6094 21.452 21.0858C21.9403 20.5621 22.5418 20.1623 23.2565 19.8863C23.9713 19.6032 24.7638 19.4617 25.6343 19.4617C26.7665 19.4617 27.736 19.7023 28.5427 20.1835C29.3565 20.6576 29.9651 21.2733 30.3685 22.0305C30.7718 22.7877 30.9735 23.559 30.9735 24.3445C30.9735 25.0734 30.7647 25.5475 30.3472 25.7669C29.9297 25.9792 29.3424 26.0853 28.5852 26.0853ZM22.9169 24.44H28.1712C28.1004 23.4493 27.8315 22.7098 27.3645 22.2216C26.9045 21.7262 26.2959 21.4785 25.5387 21.4785C24.8169 21.4785 24.2225 21.7297 23.7554 22.2322C23.2955 22.7275 23.0159 23.4635 22.9169 24.44Z" fill="#131313"/>
</svg>
