<svg width="51" height="51" viewBox="0 0 51 51" fill="none" xmlns="http://www.w3.org/2000/svg">
<circle cx="25.5" cy="25.5" r="25.5" fill="#D1EBD5"/>
<path d="M38 25.5013C38 27.1263 37.6823 28.6784 37.0469 30.1576C36.4115 31.6368 35.5573 32.9128 34.4844 33.9857C33.4115 35.0586 32.1354 35.9128 30.6562 36.5482C29.1771 37.1836 27.625 37.5013 26 37.5013C24.2083 37.5013 22.5052 37.1237 20.8906 36.3685C19.276 35.6133 17.901 34.5482 16.7656 33.1732C16.6927 33.0691 16.6589 32.9519 16.6641 32.8217C16.6693 32.6914 16.7135 32.5847 16.7969 32.5013L18.9375 30.3451C19.0417 30.2513 19.1719 30.2045 19.3281 30.2045C19.4948 30.2253 19.6146 30.2878 19.6875 30.392C20.4479 31.3816 21.3802 32.1472 22.4844 32.6888C23.5885 33.2305 24.7604 33.5013 26 33.5013C27.0833 33.5013 28.1172 33.2904 29.1016 32.8685C30.0859 32.4467 30.9375 31.8763 31.6562 31.1576C32.375 30.4388 32.9453 29.5873 33.3672 28.6029C33.7891 27.6185 34 26.5847 34 25.5013C34 24.418 33.7891 23.3842 33.3672 22.3998C32.9453 21.4154 32.375 20.5638 31.6562 19.8451C30.9375 19.1263 30.0859 18.556 29.1016 18.1342C28.1172 17.7123 27.0833 17.5013 26 17.5013C24.9792 17.5013 24 17.6862 23.0625 18.056C22.125 18.4258 21.2917 18.9545 20.5625 19.642L22.7031 21.7982C23.026 22.1107 23.099 22.4701 22.9219 22.8763C22.7448 23.293 22.4375 23.5013 22 23.5013H15C14.7292 23.5013 14.4948 23.4024 14.2969 23.2045C14.099 23.0066 14 22.7722 14 22.5013V15.5013C14 15.0638 14.2083 14.7566 14.625 14.5795C15.0312 14.4024 15.3906 14.4753 15.7031 14.7982L17.7344 16.8138C18.849 15.7618 20.1224 14.9467 21.5547 14.3685C22.987 13.7904 24.4688 13.5013 26 13.5013C27.625 13.5013 29.1771 13.8191 30.6562 14.4545C32.1354 15.0899 33.4115 15.9441 34.4844 17.017C35.5573 18.0899 36.4115 19.3659 37.0469 20.8451C37.6823 22.3243 38 23.8763 38 25.5013ZM28 21.0013V28.0013C28 28.1472 27.9531 28.267 27.8594 28.3607C27.7656 28.4545 27.6458 28.5013 27.5 28.5013H22.5C22.3542 28.5013 22.2344 28.4545 22.1406 28.3607C22.0469 28.267 22 28.1472 22 28.0013V27.0013C22 26.8555 22.0469 26.7357 22.1406 26.642C22.2344 26.5482 22.3542 26.5013 22.5 26.5013H26V21.0013C26 20.8555 26.0469 20.7357 26.1406 20.642C26.2344 20.5482 26.3542 20.5013 26.5 20.5013H27.5C27.6458 20.5013 27.7656 20.5482 27.8594 20.642C27.9531 20.7357 28 20.8555 28 21.0013Z" fill="black"/>
</svg>
