<svg width="27" height="20" viewBox="0 0 27 20" fill="none" xmlns="http://www.w3.org/2000/svg">
<path fill-rule="evenodd" clip-rule="evenodd" d="M23.7499 8.856C23.7499 10.5818 22.3508 11.9809 20.6249 11.9809C18.8991 11.9809 17.5 10.5818 17.5 8.856C17.5 7.12997 18.8991 5.73083 20.6249 5.73083C22.3508 5.73083 23.7499 7.12997 23.7499 8.856Z" fill="white"/>
<path fill-rule="evenodd" clip-rule="evenodd" d="M8.74989 8.856C8.74989 10.5818 7.35076 11.9809 5.62495 11.9809C3.89913 11.9809 2.5 10.5818 2.5 8.856C2.5 7.12997 3.89913 5.73083 5.62495 5.73083C7.35076 5.73083 8.74989 7.12997 8.74989 8.856Z" fill="white"/>
<path fill-rule="evenodd" clip-rule="evenodd" d="M17.5002 5.10593C17.5002 7.52212 15.5413 9.48081 13.1251 9.48081C10.7089 9.48081 8.75 7.52212 8.75 5.10593C8.75 2.68958 10.7089 0.730835 13.1251 0.730835C15.5413 0.730835 17.5002 2.68952 17.5002 5.10593Z" fill="white"/>
<path fill-rule="evenodd" clip-rule="evenodd" d="M21.2227 13.2306C22.0315 14.4931 22.5002 15.9944 22.5002 17.6057V18.8556C22.5002 19.0751 22.4628 19.285 22.3933 19.4807H25.6252C25.7909 19.4807 25.9502 19.415 26.0671 19.2976C26.1845 19.1806 26.2503 19.0214 26.2503 18.8556V17.6057C26.2503 15.1895 24.2916 13.2306 21.8752 13.2306H21.2227Z" fill="white"/>
<path fill-rule="evenodd" clip-rule="evenodd" d="M20.6252 19.4808H5.62507C5.28 19.4808 5 19.2008 5 18.8557V17.6058C5 13.8089 8.07828 10.731 11.8754 10.731H14.3753C18.1722 10.731 21.2507 13.809 21.2507 17.6058V18.8557C21.2507 19.2008 20.9707 19.4808 20.6256 19.4808H20.6252Z" fill="white"/>
<path fill-rule="evenodd" clip-rule="evenodd" d="M5.0276 13.2306H4.37509C1.95874 13.2306 0 15.1895 0 17.6057V18.8556C0 19.0214 0.065711 19.1806 0.183108 19.2976C0.300087 19.415 0.459334 19.4807 0.625075 19.4807H3.85695C3.78747 19.285 3.75001 19.0751 3.75001 18.8556V17.6057C3.75001 15.9944 4.21877 14.4931 5.0276 13.2306Z" fill="white"/>
</svg>
