<svg width="51" height="51" viewBox="0 0 51 51" fill="none" xmlns="http://www.w3.org/2000/svg">
<circle cx="25.5" cy="25.5" r="25.5" fill="#D1EBD5"/>
<path d="M39.2891 21.4513L26.2685 13.1275C26.1382 13.0442 25.9866 13 25.8318 13C25.677 13 25.5255 13.0442 25.3951 13.1275L12.3745 21.4513C12.1759 21.578 12.0425 21.7849 12.0085 22.0179C11.9745 22.2509 12.0435 22.4874 12.1977 22.6654C12.3519 22.8436 12.5757 22.9458 12.8112 22.9458H14.549V38.1058C14.549 38.3209 14.6345 38.5272 14.7866 38.6794C14.9386 38.8313 15.1449 38.9169 15.3602 38.9169H36.3037C36.5189 38.9169 36.7253 38.8313 36.8772 38.6794C37.0293 38.5272 37.1149 38.3209 37.1149 38.1058V22.9458H38.8526C39.0881 22.9458 39.3119 22.8436 39.4661 22.6654C39.6203 22.4874 39.6894 22.2509 39.6553 22.0179C39.6213 21.7849 39.4879 21.578 39.2893 21.4513H39.2891ZM31.2344 37.2948H20.4292V36.21L31.2344 36.2098V37.2948ZM31.2344 34.5878H20.4292V33.5739H31.2344V34.5878ZM31.2344 31.9518H20.4292V30.9379H31.2344V31.9518ZM31.2344 29.3158L20.4292 29.3156V28.3017L31.2344 28.3019V29.3158ZM35.4927 37.2949H32.8567L32.8565 27.4909C32.8565 27.2758 32.7709 27.0695 32.619 26.9175C32.4668 26.7654 32.2605 26.6798 32.0454 26.6798H19.6182C19.4031 26.6798 19.1968 26.7654 19.0446 26.9175C18.8927 27.0695 18.8071 27.2758 18.8071 27.4909V37.2949H16.1711V22.9463H35.4925L35.4927 37.2949ZM15.5858 21.3242L25.8315 14.7742L36.0772 21.3236L15.5858 21.3242Z" fill="black"/>
</svg>
