<svg width="94" height="28" viewBox="0 0 94 28" fill="none" xmlns="http://www.w3.org/2000/svg">
<path d="M45.274 20V10.004H46.52V18.88H50.608V20H45.274ZM58.2253 16.234C58.2253 16.8593 58.146 17.4147 57.9873 17.9C57.838 18.376 57.6186 18.782 57.3293 19.118C57.04 19.454 56.69 19.7107 56.2793 19.888C55.8686 20.056 55.4113 20.14 54.9073 20.14C54.4406 20.14 54.0066 20.056 53.6053 19.888C53.2133 19.7107 52.868 19.454 52.5693 19.118C52.28 18.782 52.056 18.376 51.8973 17.9C51.7386 17.4147 51.6593 16.8593 51.6593 16.234C51.6593 15.4033 51.79 14.7033 52.0513 14.134C52.322 13.5553 52.7046 13.1167 53.1993 12.818C53.694 12.51 54.2773 12.356 54.9493 12.356C55.5933 12.356 56.158 12.51 56.6433 12.818C57.138 13.1167 57.5253 13.5553 57.8053 14.134C58.0853 14.7033 58.2253 15.4033 58.2253 16.234ZM52.9193 16.234C52.9193 16.822 52.9893 17.3353 53.1293 17.774C53.2693 18.2033 53.4886 18.5347 53.7873 18.768C54.086 19.0013 54.4686 19.118 54.9353 19.118C55.402 19.118 55.7846 19.0013 56.0833 18.768C56.382 18.5347 56.6013 18.2033 56.7413 17.774C56.8906 17.3353 56.9653 16.822 56.9653 16.234C56.9653 15.6367 56.8906 15.128 56.7413 14.708C56.6013 14.288 56.382 13.966 56.0833 13.742C55.7846 13.5087 55.3973 13.392 54.9213 13.392C54.2213 13.392 53.7126 13.644 53.3953 14.148C53.078 14.652 52.9193 15.3473 52.9193 16.234ZM62.5277 12.356C62.9944 12.356 63.4097 12.4493 63.7737 12.636C64.147 12.8227 64.4644 13.1073 64.7257 13.49H64.7957L64.9497 12.496H65.9297V20.126C65.9297 20.8353 65.813 21.428 65.5797 21.904C65.3557 22.3893 65.0057 22.7533 64.5297 22.996C64.063 23.2387 63.4657 23.36 62.7377 23.36C62.2244 23.36 61.7577 23.318 61.3377 23.234C60.9177 23.1593 60.535 23.0427 60.1897 22.884V21.75C60.423 21.8713 60.675 21.974 60.9457 22.058C61.2257 22.1513 61.5197 22.2213 61.8277 22.268C62.145 22.3147 62.4717 22.338 62.8077 22.338C63.405 22.338 63.8717 22.1467 64.2077 21.764C64.553 21.3907 64.7257 20.8773 64.7257 20.224V19.93C64.7257 19.818 64.7304 19.6593 64.7397 19.454C64.749 19.2393 64.7584 19.09 64.7677 19.006H64.7117C64.469 19.3887 64.1657 19.6733 63.8017 19.86C63.4377 20.0467 63.0177 20.14 62.5417 20.14C61.6364 20.14 60.927 19.7993 60.4137 19.118C59.9004 18.4367 59.6437 17.4847 59.6437 16.262C59.6437 15.4593 59.7557 14.7687 59.9797 14.19C60.213 13.602 60.5444 13.1493 60.9737 12.832C61.4124 12.5147 61.9304 12.356 62.5277 12.356ZM62.7237 13.392C62.341 13.392 62.0097 13.504 61.7297 13.728C61.459 13.952 61.2537 14.2787 61.1137 14.708C60.9737 15.1373 60.9037 15.66 60.9037 16.276C60.9037 17.2 61.0577 17.9093 61.3657 18.404C61.683 18.8893 62.145 19.132 62.7517 19.132C63.097 19.132 63.3957 19.0853 63.6477 18.992C63.8997 18.8893 64.105 18.7353 64.2637 18.53C64.4224 18.3153 64.539 18.0447 64.6137 17.718C64.6977 17.3913 64.7397 17.004 64.7397 16.556V16.262C64.7397 15.5807 64.665 15.03 64.5157 14.61C64.3757 14.19 64.1564 13.882 63.8577 13.686C63.5684 13.49 63.1904 13.392 62.7237 13.392ZM79.9471 14.988C79.9471 15.7627 79.8537 16.4673 79.6671 17.102C79.4804 17.7273 79.2051 18.2687 78.8411 18.726C78.4771 19.1833 78.0244 19.5333 77.4831 19.776C76.9417 20.0187 76.3164 20.14 75.6071 20.14C74.8697 20.14 74.2257 20.0187 73.6751 19.776C73.1337 19.524 72.6811 19.174 72.3171 18.726C71.9624 18.2687 71.6964 17.7227 71.5191 17.088C71.3417 16.4533 71.2531 15.7487 71.2531 14.974C71.2531 13.9473 71.4117 13.0513 71.7291 12.286C72.0464 11.5207 72.5271 10.9233 73.1711 10.494C73.8244 10.0647 74.6411 9.85 75.6211 9.85C76.5637 9.85 77.3571 10.0647 78.0011 10.494C78.6451 10.914 79.1304 11.5113 79.4571 12.286C79.7837 13.0513 79.9471 13.952 79.9471 14.988ZM72.5691 14.988C72.5691 15.828 72.6764 16.5513 72.8911 17.158C73.1057 17.7647 73.4371 18.2313 73.8851 18.558C74.3424 18.8847 74.9164 19.048 75.6071 19.048C76.3071 19.048 76.8811 18.8847 77.3291 18.558C77.7771 18.2313 78.1037 17.7647 78.3091 17.158C78.5237 16.5513 78.6311 15.828 78.6311 14.988C78.6311 13.728 78.3884 12.7433 77.9031 12.034C77.4271 11.3153 76.6664 10.956 75.6211 10.956C74.9211 10.956 74.3424 11.1193 73.8851 11.446C73.4371 11.7633 73.1057 12.2253 72.8911 12.832C72.6764 13.4293 72.5691 14.148 72.5691 14.988ZM87.806 12.496V20H86.826L86.644 19.006H86.588C86.4387 19.2673 86.2427 19.482 86 19.65C85.7667 19.818 85.51 19.9393 85.23 20.014C84.95 20.098 84.656 20.14 84.348 20.14C83.788 20.14 83.3167 20.0467 82.934 19.86C82.5513 19.664 82.262 19.3653 82.066 18.964C81.8793 18.5627 81.786 18.0447 81.786 17.41V12.496H83.018V17.326C83.018 17.9233 83.144 18.3713 83.396 18.67C83.648 18.9687 84.0353 19.118 84.558 19.118C85.0713 19.118 85.4727 19.0153 85.762 18.81C86.0607 18.5953 86.2707 18.2873 86.392 17.886C86.5227 17.4753 86.588 16.9807 86.588 16.402V12.496H87.806ZM92.4401 19.132C92.6174 19.132 92.7994 19.118 92.9861 19.09C93.1728 19.0527 93.3268 19.0153 93.4481 18.978V19.916C93.3174 19.9813 93.1308 20.0327 92.8881 20.07C92.6548 20.1167 92.4308 20.14 92.2161 20.14C91.8428 20.14 91.4974 20.0747 91.1801 19.944C90.8628 19.804 90.6061 19.566 90.4101 19.23C90.2234 18.894 90.1301 18.4227 90.1301 17.816V13.448H89.1361V12.86L90.1581 12.37L90.6201 10.774H91.3481V12.496H93.3921V13.448H91.3481V17.788C91.3481 18.2453 91.4508 18.586 91.6561 18.81C91.8614 19.0247 92.1228 19.132 92.4401 19.132Z" fill="#FF4949"/>
<path d="M19.8327 2.33325H8.16602C6.18268 2.33325 4.66602 3.84992 4.66602 5.83325V12.8333H14.6994L12.016 10.1499C11.5493 9.68325 11.5493 8.98325 12.016 8.51659C12.4827 8.04992 13.1827 8.04992 13.6493 8.51659L18.316 13.1833C18.7827 13.6499 18.7827 14.3499 18.316 14.8166L13.6493 19.4833C13.1827 19.9499 12.4827 19.9499 12.016 19.4833C11.5493 19.0166 11.5493 18.3166 12.016 17.8499L14.6994 15.1666H4.66602V22.1666C4.66602 24.1499 6.18268 25.6666 8.16602 25.6666H19.8327C21.816 25.6666 23.3327 24.1499 23.3327 22.1666V5.83325C23.3327 3.84992 21.816 2.33325 19.8327 2.33325Z" fill="#FF4949"/>
</svg>
