<svg width="28" height="28" viewBox="0 0 28 28" fill="none" xmlns="http://www.w3.org/2000/svg">
<path d="M5.15706 17.6807H14.1448C14.7476 16.5003 15.6333 15.4879 16.7232 14.7338H5.157C4.75001 14.7338 4.4201 14.4041 4.4201 13.9972C4.4201 13.5902 4.75001 13.2605 5.157 13.2605H16.9442C17.1395 13.2605 17.327 13.3381 17.465 13.4763C17.6033 13.6143 17.6809 13.8019 17.6809 13.9972C17.6839 14.0516 17.6791 14.1064 17.6662 14.1593C18.5437 13.7192 19.4907 13.435 20.4656 13.3193C20.7631 13.2762 21.0638 13.2566 21.3644 13.2605C21.6105 13.26 21.8567 13.2749 22.101 13.3047V3.6835C22.101 2.70659 21.713 1.76979 21.0221 1.07887C20.3315 0.388215 19.3944 0 18.4175 0H3.6835C2.70659 0 1.76979 0.388235 1.07887 1.07887C0.388215 1.76979 0 2.70659 0 3.6835V19.8909C0 20.8678 0.388235 21.8046 1.07887 22.4955C1.76979 23.1862 2.70659 23.5744 3.6835 23.5744H13.5698C13.4511 23.1446 13.3673 22.7062 13.3192 22.263C13.2761 21.9654 13.2565 21.6648 13.2604 21.3642C13.2578 20.6165 13.3619 19.8724 13.5698 19.154H5.1569C4.74991 19.154 4.42 18.8243 4.42 18.4173C4.42 18.0106 4.75007 17.6807 5.15706 17.6807ZM5.15706 4.42005H16.9443C17.351 4.42005 17.6809 4.74996 17.6809 5.15695C17.6809 5.56368 17.351 5.89358 16.9443 5.89358H5.15706C4.75007 5.89358 4.42016 5.56367 4.42016 5.15695C4.42016 4.74995 4.75007 4.42005 5.15706 4.42005ZM5.15706 8.84019H16.9443C17.351 8.84019 17.6809 9.1701 17.6809 9.57708C17.6809 9.98382 17.351 10.3137 16.9443 10.3137H5.15706C4.75007 10.3137 4.42016 9.9838 4.42016 9.57708C4.42016 9.17008 4.75007 8.84019 5.15706 8.84019ZM22.1012 14.7781C21.612 14.7192 21.1171 14.7192 20.6279 14.7781C19.0076 14.9592 17.5109 15.731 16.4236 16.9459C15.3365 18.161 14.735 19.7339 14.7342 21.3642C14.7339 21.6104 14.7486 21.8565 14.7784 22.1009C14.8303 22.6042 14.9441 23.0991 15.1173 23.5744C15.6453 25.0708 16.6926 26.328 18.0687 27.1181C19.4449 27.9082 21.059 28.1782 22.6173 27.8797C24.1759 27.5811 25.5755 26.7335 26.5624 25.4907C27.5491 24.2478 28.0573 22.6926 27.9949 21.107C27.9324 19.5212 27.3034 18.0106 26.222 16.8492C25.1405 15.6881 23.6782 14.9533 22.1012 14.7781ZM22.1012 21.3643C22.1012 21.5596 22.0236 21.7471 21.8853 21.8851C21.7474 22.0234 21.5598 22.1009 21.3645 22.1009H19.2281C18.8214 22.1009 18.4915 21.7713 18.4915 21.3643C18.4915 20.9573 18.8214 20.6277 19.2281 20.6277H20.6279V18.4174C20.6279 18.0107 20.9575 17.6808 21.3645 17.6808C21.7715 17.6808 22.1012 18.0107 22.1012 18.4174L22.1012 21.3643Z" fill="white"/>
</svg>
