<svg width="33" height="28" viewBox="0 0 33 28" fill="none" xmlns="http://www.w3.org/2000/svg">
<path d="M12.7198 14.8548C12.9135 14.9143 13.1173 14.9374 13.32 14.9223L15.2891 14.7588L21.2365 14.2646C21.7509 14.2214 22.2058 13.9231 22.4389 13.4757C22.6722 13.0283 22.6508 12.4955 22.382 12.0672C22.1075 11.7084 21.7036 11.4633 21.251 11.381L16.0284 10.6236L12.2549 10.076L12.2551 10.0762C12.0961 10.0534 11.9528 9.97008 11.8571 9.84484C11.7614 9.71935 11.7208 9.56212 11.7448 9.40761C11.7685 9.2531 11.8546 9.11422 11.984 9.02147C12.1134 8.92897 12.2755 8.89003 12.4343 8.91359L21.5071 10.229C21.9168 10.2851 22.3051 10.4411 22.6359 10.6824H24.5155L20.2772 5.94128C19.4123 4.88477 18.1374 4.22112 16.7529 4.10678L6.32205 3.2286L6.47217 2.77004V2.76979C6.62024 2.31744 6.36315 1.83385 5.89749 1.68903L3.80408 1.03852C3.33816 0.895426 2.84086 1.14492 2.69152 1.59678L0.0417962 9.63889H0.0415409C-0.105765 10.0912 0.151064 10.5743 0.616216 10.7197L2.71349 11.3702C2.93662 11.4401 3.1794 11.4208 3.38796 11.3168C3.59654 11.2127 3.75406 11.0324 3.82605 10.8156L3.89932 10.581L5.01547 12.1382C5.20847 12.4083 5.48752 12.6094 5.80967 12.7106L6.68812 12.9844L12.4085 14.7586L12.7198 14.8548Z" fill="white"/>
<path d="M30.9721 11.9985H23.8235C24.0813 12.7976 23.9516 13.6673 23.4712 14.3627C22.991 15.0581 22.2116 15.5043 21.3527 15.5757L13.4362 16.2334C13.3443 16.2398 13.2717 16.2423 13.1992 16.2423H13.199C12.8962 16.2428 12.5952 16.1974 12.3067 16.1076L8.41016 14.8996V25.819C8.41016 26.3262 8.61746 26.8125 8.98662 27.1709C9.35577 27.5295 9.85644 27.7309 10.3785 27.7309H30.9728C31.4946 27.7309 31.9953 27.5295 32.3644 27.1709C32.7336 26.8125 32.9409 26.3262 32.9409 25.819V13.9105C32.9409 13.4033 32.7336 12.9172 32.3644 12.5586C31.9953 12.2 31.4946 11.9986 30.9728 11.9986L30.9721 11.9985ZM15.2239 24.0569C15.2239 24.0862 15.2119 24.1142 15.1905 24.1351C15.1693 24.1556 15.1405 24.1673 15.1103 24.1673H11.249C11.2188 24.1673 11.19 24.1556 11.1688 24.1351C11.1474 24.1142 11.1354 24.0862 11.1354 24.0569V22.9538C11.1354 22.9246 11.1474 22.8963 11.1688 22.8757C11.19 22.8551 11.2188 22.8435 11.249 22.8435H15.1103C15.1405 22.8435 15.1693 22.8551 15.1905 22.8757C15.2119 22.8963 15.2239 22.9246 15.2239 22.9538V24.0569ZM20.2209 24.0569C20.2209 24.1179 20.1701 24.1673 20.1073 24.1673H16.2459C16.2158 24.1673 16.1869 24.1556 16.1657 24.1351C16.1443 24.1142 16.1323 24.0862 16.1323 24.0569V22.9538C16.1323 22.9246 16.1443 22.8963 16.1657 22.8757C16.1869 22.8551 16.2158 22.8435 16.2459 22.8435H20.1073C20.1701 22.8435 20.2209 22.8928 20.2206 22.9538L20.2209 24.0569ZM25.2178 24.0569C25.2178 24.1179 25.167 24.1673 25.1042 24.1673H21.2428C21.1803 24.1673 21.1292 24.1179 21.1292 24.0569V22.9538C21.1292 22.8928 21.1803 22.8435 21.2428 22.8435H25.1042C25.167 22.8435 25.2178 22.8928 25.2178 22.9538V24.0569ZM30.2147 24.0569C30.2147 24.0862 30.2027 24.1142 30.1815 24.1351C30.1601 24.1556 30.1312 24.1673 30.1011 24.1673H26.2397C26.2096 24.1673 26.1808 24.1556 26.1596 24.1351C26.1381 24.1142 26.1261 24.0862 26.1261 24.0569V22.9538C26.1261 22.9246 26.1381 22.8963 26.1596 22.8757C26.1808 22.8551 26.2096 22.8435 26.2397 22.8435H30.1011C30.1312 22.8435 30.1601 22.8551 30.1813 22.8757C30.2027 22.8963 30.2147 22.9246 30.2147 22.9538V24.0569ZM28.3069 18.5409C27.6625 18.5409 27.0562 18.245 26.6715 17.7428C26.3268 18.1914 25.8032 18.4779 25.2296 18.5317C24.656 18.5855 24.0856 18.4015 23.659 18.025C23.2324 17.6486 22.9891 17.1149 22.9891 16.5551C22.9891 15.9952 23.2324 15.4614 23.659 15.085C24.0856 14.7088 24.656 14.5248 25.2296 14.5783C25.8033 14.6322 26.3269 14.9186 26.6715 15.3672C27.0958 14.8162 27.7839 14.5178 28.4894 14.5788C29.1951 14.6401 29.8177 15.052 30.1348 15.6675C30.4522 16.2828 30.4185 17.0139 30.046 17.5995C29.6733 18.185 29.0153 18.5412 28.3069 18.5409L28.3069 18.5409Z" fill="white"/>
</svg>
