<svg width="55" height="55" viewBox="0 0 55 55" fill="none" xmlns="http://www.w3.org/2000/svg">
<circle cx="25.3846" cy="25.3846" r="25.3846" fill="#D1EBD5"/>
<g clip-path="url(#clip0_234_1514)">
<path d="M36.6659 19.7437H32.2729C32.9141 19.4222 33.502 19.0042 34.016 18.504C34.8078 17.7099 35.2524 16.6343 35.2524 15.5129C35.2524 14.3915 34.8078 13.3158 34.016 12.5217C32.4168 10.9239 29.6329 10.9239 28.0337 12.5217C25.7265 14.8303 25.412 19.1753 25.3838 19.6633C25.3556 19.1753 25.0411 14.8303 22.7339 12.5231C21.1347 10.9253 18.348 10.9267 16.7516 12.5231C15.952 13.3213 15.512 14.3833 15.512 15.5129C15.512 16.6425 15.952 17.7058 16.7502 18.504C17.2651 19.0038 17.8534 19.4218 18.4947 19.7437H14.1018C12.5462 19.7437 11.2812 21.0101 11.2812 22.5642V26.7949C11.2812 27.169 11.4298 27.5277 11.6943 27.7921C11.9588 28.0566 12.3175 28.2052 12.6915 28.2052V36.6667C12.6915 38.2222 13.9565 39.4872 15.512 39.4872H35.2556C36.8111 39.4872 38.0761 38.2222 38.0761 36.6667V28.2052C38.4501 28.2052 38.8088 28.0566 39.0733 27.7921C39.3378 27.5277 39.4864 27.169 39.4864 26.7949V22.5642C39.4864 21.0101 38.2214 19.7437 36.6659 19.7437ZM19.7428 36.6667H15.512V28.2052H19.7428V36.6667ZM19.7428 25.3847H14.1018V22.5642H19.7428V25.3847ZM18.7457 16.5099C18.6143 16.3793 18.5102 16.224 18.4392 16.0528C18.3683 15.8817 18.332 15.6981 18.3325 15.5129C18.3318 15.3275 18.3678 15.1439 18.4384 14.9725C18.509 14.8012 18.6129 14.6455 18.744 14.5145C18.8751 14.3835 19.0309 14.2798 19.2023 14.2094C19.3738 14.1389 19.5574 14.1031 19.7428 14.104C20.1207 14.104 20.4747 14.2507 20.7413 14.5172C21.5733 15.3479 22.0584 16.8413 22.3179 18.0852C21.0755 17.8243 19.5736 17.3378 18.7457 16.5099ZM28.2043 36.6667H22.5633V28.2052H28.2043V36.6667ZM28.2043 25.3847H22.5633V22.5642H28.2043V25.3847ZM30.0278 14.5172C30.2943 14.2507 30.6483 14.104 31.0248 14.104C31.4014 14.104 31.7554 14.2507 32.0219 14.5158C32.2863 14.7803 32.4348 15.1389 32.4348 15.5129C32.4348 15.8868 32.2863 16.2455 32.0219 16.5099C31.1898 17.3448 29.6964 17.8299 28.4511 18.0908C28.7092 16.8428 29.1957 15.3493 30.0278 14.5172ZM35.2556 36.6667H31.0248V28.2052H35.2556V36.6667ZM36.6659 25.3847H31.0248V22.5642H36.6659V25.3847Z" fill="black"/>
</g>
<defs>
<clipPath id="clip0_234_1514">
<rect width="33.8462" height="33.8462" fill="white" transform="translate(8.46094 8.46155)"/>
</clipPath>
</defs>
</svg>
