<svg width="55" height="55" viewBox="0 0 55 55" fill="none" xmlns="http://www.w3.org/2000/svg">
<circle cx="26.7948" cy="28.2052" r="25.3846" fill="#D1EBD5"/>
<path d="M26.794 31.0257C27.0729 31.0257 27.3456 30.943 27.5775 30.7881C27.8094 30.6331 27.9901 30.4129 28.0969 30.1552C28.2036 29.8975 28.2315 29.6139 28.1771 29.3404C28.1227 29.0668 27.9884 28.8155 27.7912 28.6183C27.5939 28.4211 27.3427 28.2867 27.0691 28.2323C26.7955 28.1779 26.512 28.2058 26.2543 28.3126C25.9966 28.4193 25.7763 28.6001 25.6214 28.832C25.4664 29.0639 25.3837 29.3366 25.3837 29.6155C25.3837 29.9895 25.5323 30.3482 25.7968 30.6127C26.0612 30.8772 26.4199 31.0257 26.794 31.0257ZM33.8453 31.0257C34.1242 31.0257 34.3968 30.943 34.6288 30.7881C34.8607 30.6331 35.0414 30.4129 35.1482 30.1552C35.2549 29.8975 35.2828 29.6139 35.2284 29.3404C35.174 29.0668 35.0397 28.8155 34.8425 28.6183C34.6452 28.4211 34.3939 28.2867 34.1204 28.2323C33.8468 28.1779 33.5633 28.2058 33.3056 28.3126C33.0479 28.4193 32.8276 28.6001 32.6727 28.832C32.5177 29.0639 32.435 29.3366 32.435 29.6155C32.435 29.9895 32.5836 30.3482 32.8481 30.6127C33.1125 30.8772 33.4712 31.0257 33.8453 31.0257ZM26.794 36.6668C27.0729 36.6668 27.3456 36.5841 27.5775 36.4291C27.8094 36.2741 27.9901 36.0539 28.0969 35.7962C28.2036 35.5385 28.2315 35.2549 28.1771 34.9814C28.1227 34.7078 27.9884 34.4565 27.7912 34.2593C27.5939 34.0621 27.3427 33.9278 27.0691 33.8734C26.7955 33.8189 26.512 33.8469 26.2543 33.9536C25.9966 34.0603 25.7763 34.2411 25.6214 34.473C25.4664 34.7049 25.3837 34.9776 25.3837 35.2565C25.3837 35.6305 25.5323 35.9892 25.7968 36.2537C26.0612 36.5182 26.4199 36.6668 26.794 36.6668ZM33.8453 36.6668C34.1242 36.6668 34.3968 36.5841 34.6288 36.4291C34.8607 36.2741 35.0414 36.0539 35.1482 35.7962C35.2549 35.5385 35.2828 35.2549 35.2284 34.9814C35.174 34.7078 35.0397 34.4565 34.8425 34.2593C34.6452 34.0621 34.3939 33.9278 34.1204 33.8734C33.8468 33.8189 33.5633 33.8469 33.3056 33.9536C33.0479 34.0603 32.8276 34.2411 32.6727 34.473C32.5177 34.7049 32.435 34.9776 32.435 35.2565C32.435 35.6305 32.5836 35.9892 32.8481 36.2537C33.1125 36.5182 33.4712 36.6668 33.8453 36.6668ZM19.7427 31.0257C20.0216 31.0257 20.2943 30.943 20.5262 30.7881C20.7581 30.6331 20.9389 30.4129 21.0456 30.1552C21.1523 29.8975 21.1803 29.6139 21.1258 29.3404C21.0714 29.0668 20.9371 28.8155 20.7399 28.6183C20.5427 28.4211 20.2914 28.2867 20.0178 28.2323C19.7443 28.1779 19.4607 28.2058 19.203 28.3126C18.9453 28.4193 18.7251 28.6001 18.5701 28.832C18.4151 29.0639 18.3324 29.3366 18.3324 29.6155C18.3324 29.9895 18.481 30.3482 18.7455 30.6127C19.01 30.8772 19.3687 31.0257 19.7427 31.0257ZM36.6658 16.9232H35.2555V15.5129C35.2555 15.1389 35.1069 14.7802 34.8425 14.5157C34.578 14.2512 34.2193 14.1027 33.8453 14.1027C33.4712 14.1027 33.1125 14.2512 32.8481 14.5157C32.5836 14.7802 32.435 15.1389 32.435 15.5129V16.9232H21.1529V15.5129C21.1529 15.1389 21.0044 14.7802 20.7399 14.5157C20.4754 14.2512 20.1167 14.1027 19.7427 14.1027C19.3687 14.1027 19.01 14.2512 18.7455 14.5157C18.481 14.7802 18.3324 15.1389 18.3324 15.5129V16.9232H16.9222C15.8001 16.9232 14.724 17.3689 13.9306 18.1623C13.1371 18.9558 12.6914 20.0319 12.6914 21.1539V38.077C12.6914 39.1991 13.1371 40.2752 13.9306 41.0686C14.724 41.8621 15.8001 42.3078 16.9222 42.3078H36.6658C37.7878 42.3078 38.864 41.8621 39.6574 41.0686C40.4508 40.2752 40.8965 39.1991 40.8965 38.077V21.1539C40.8965 20.0319 40.4508 18.9558 39.6574 18.1623C38.864 17.3689 37.7878 16.9232 36.6658 16.9232ZM38.076 38.077C38.076 38.451 37.9274 38.8097 37.663 39.0742C37.3985 39.3387 37.0398 39.4873 36.6658 39.4873H16.9222C16.5482 39.4873 16.1894 39.3387 15.925 39.0742C15.6605 38.8097 15.5119 38.451 15.5119 38.077V25.3847H38.076V38.077ZM38.076 22.5642H15.5119V21.1539C15.5119 20.7799 15.6605 20.4212 15.925 20.1567C16.1894 19.8923 16.5482 19.7437 16.9222 19.7437H36.6658C37.0398 19.7437 37.3985 19.8923 37.663 20.1567C37.9274 20.4212 38.076 20.7799 38.076 21.1539V22.5642ZM19.7427 36.6668C20.0216 36.6668 20.2943 36.5841 20.5262 36.4291C20.7581 36.2741 20.9389 36.0539 21.0456 35.7962C21.1523 35.5385 21.1803 35.2549 21.1258 34.9814C21.0714 34.7078 20.9371 34.4565 20.7399 34.2593C20.5427 34.0621 20.2914 33.9278 20.0178 33.8734C19.7443 33.8189 19.4607 33.8469 19.203 33.9536C18.9453 34.0603 18.7251 34.2411 18.5701 34.473C18.4151 34.7049 18.3324 34.9776 18.3324 35.2565C18.3324 35.6305 18.481 35.9892 18.7455 36.2537C19.01 36.5182 19.3687 36.6668 19.7427 36.6668Z" fill="black"/>
</svg>
