<svg width="51" height="51" viewBox="0 0 51 51" fill="none" xmlns="http://www.w3.org/2000/svg">
<circle cx="25.5" cy="25.5" r="25.5" fill="#D1EBD5"/>
<path d="M40.8446 27.0628C40.8344 26.9729 40.8095 26.8853 40.7711 26.8035C40.7611 26.785 40.7711 26.7639 40.754 26.7454L38.2106 22.4945C37.7855 21.7917 37.0241 21.3618 36.2029 21.3611H31.1343V20.6654C31.1343 19.6506 30.7313 18.6775 30.0137 17.9599C29.2964 17.2426 28.3231 16.8396 27.3085 16.8396H20.6413C19.8932 14.7227 18.1065 13.1414 15.9146 12.6556C13.7228 12.1698 11.4353 12.8483 9.86284 14.4508C8.29033 16.0532 7.65488 18.353 8.18193 20.5357C8.70902 22.718 10.3238 24.4746 12.4544 25.1829V35.4348C12.4544 35.9042 12.8348 36.2849 13.3045 36.2849H15.6537C15.9056 37.3576 16.6303 38.2585 17.6242 38.7346C18.6181 39.2107 19.7743 39.2107 20.768 38.7346C21.7619 38.2586 22.4866 37.3576 22.7385 36.2849H31.6186C31.8674 37.3605 32.5914 38.2647 33.5865 38.743C34.5816 39.221 35.7402 39.221 36.7353 38.743C37.7304 38.2647 38.4546 37.3605 38.7035 36.2849H40.0255C40.4949 36.2849 40.8756 35.9042 40.8756 35.4348V27.2051C40.8695 27.1569 40.859 27.1095 40.8443 27.0632L40.8446 27.0628ZM9.70278 19.0256C9.70278 17.748 10.2104 16.5225 11.1139 15.6192C12.0175 14.7156 13.2427 14.208 14.5206 14.208C15.7982 14.208 17.0237 14.7157 17.9272 15.6192C18.8305 16.5225 19.3382 17.748 19.3382 19.0256C19.3382 20.3035 18.8305 21.5289 17.9272 22.4322C17.0237 23.3358 15.7982 23.8434 14.5206 23.8434C13.2437 23.8408 12.0196 23.3322 11.1168 22.4294C10.214 21.5266 9.70539 20.3026 9.70278 19.0256ZM21.1388 35.4625C21.1308 36.1542 20.7557 36.7897 20.1539 37.1311C19.5521 37.4722 18.8141 37.4679 18.2164 37.1197C17.6186 36.7715 17.2509 36.1317 17.2509 35.44C17.2509 34.748 17.6186 34.1082 18.2164 33.76C18.8141 33.4118 19.5521 33.4075 20.1539 33.7487C20.7557 34.09 21.1307 34.7255 21.1388 35.4172V35.4625ZM29.4353 22.1913V34.5911H22.739C22.4854 33.5195 21.7607 32.6203 20.7672 32.1452C19.7741 31.67 18.619 31.67 17.6258 32.1452C16.6327 32.6203 15.9077 33.5196 15.6541 34.5911H14.1566V25.5155C14.2814 25.5226 14.3988 25.5522 14.525 25.5522V25.5525C16.2526 25.5494 17.9089 24.8617 19.1305 23.6401C20.3521 22.4182 21.0398 20.7622 21.0429 19.0343C21.0429 18.8671 21.0061 18.7098 20.9933 18.5454H27.3016V18.5456C27.8652 18.5456 28.4059 18.7696 28.8046 19.1681C29.2031 19.5666 29.427 20.1072 29.427 20.6711L29.4353 22.1913ZM31.1356 23.0614H36.1999C36.4251 23.0621 36.6331 23.1809 36.7481 23.3745L38.5194 26.3302H31.1345L31.1356 23.0614ZM35.1512 37.3941C34.6343 37.3941 34.1385 37.1887 33.7728 36.8231C33.4072 36.4576 33.2018 35.9618 33.2016 35.4447C33.2016 34.9278 33.4067 34.4318 33.7721 34.0662C34.1376 33.7005 34.6334 33.4948 35.1502 33.4946C35.6674 33.4943 36.1634 33.6995 36.5292 34.0648C36.8949 34.4301 37.1006 34.9259 37.1011 35.443C37.1011 35.9606 36.8954 36.4568 36.5296 36.8231C36.1639 37.1892 35.6674 37.3951 35.1497 37.3955L35.1512 37.3941ZM39.1756 34.594H38.7052C38.4483 33.523 37.7214 32.6252 36.7273 32.151C35.7331 31.6766 34.5779 31.6766 33.584 32.151C32.5898 32.6252 31.863 33.5231 31.6061 34.594H31.14V28.0331L39.1753 28.0334L39.1756 34.594ZM16.3217 20.4247H14.3068C13.8371 20.4247 13.4566 20.0442 13.4566 19.5745V17.1063C13.4566 16.6366 13.8371 16.2561 14.3068 16.2561C14.7762 16.2561 15.1569 16.6366 15.1569 17.1063V18.7328H16.3145C16.784 18.7328 17.1647 19.1136 17.1647 19.583C17.1647 20.0525 16.784 20.4332 16.3145 20.4332L16.3217 20.4247Z" fill="black"/>
</svg>
