<svg width="30" height="24" viewBox="0 0 30 24" fill="none" xmlns="http://www.w3.org/2000/svg">
<path d="M8.74046 0.730835C6.58626 0.730835 4.72299 2.33433 4.40786 4.46427C4.37669 4.67553 4.35938 4.89372 4.35938 5.11194C4.35938 5.22623 4.36284 5.33706 4.37323 5.45135C4.38362 5.58641 4.40093 5.72148 4.42171 5.85655C4.45981 6.09206 4.52215 6.3241 4.59835 6.54576C4.69186 6.8159 4.93082 7.32503 5.54727 8.22202C6.54122 9.66966 7.98196 11.3494 8.74045 12.2083C8.77162 12.1736 8.80279 12.139 8.83396 12.1044C9.61322 11.2178 10.9778 9.61427 11.9336 8.22198C12.5501 7.32499 12.7891 6.81588 12.8825 6.54572C12.9587 6.32061 13.0176 6.09203 13.0592 5.85651C13.073 5.78379 13.0834 5.70759 13.0903 5.6314C13.1111 5.45823 13.1215 5.28506 13.1215 5.11537C13.1215 2.69449 11.1544 0.730841 8.74039 0.730841L8.74046 0.730835ZM8.74046 6.48688C7.98197 6.48688 7.36552 5.87041 7.36552 5.11194C7.36552 4.35345 7.98199 3.737 8.74046 3.737C9.49892 3.737 10.1154 4.35347 10.1154 5.11194C10.1154 5.87043 9.49892 6.48688 8.74046 6.48688Z" fill="white"/>
<path d="M15.4637 5.44775H14.4974C14.4905 5.56204 14.4801 5.67287 14.4697 5.78716C14.4628 5.84604 14.4559 5.90838 14.4455 5.96726C14.4386 6.00535 14.4316 6.04691 14.4282 6.08501C14.3762 6.39324 14.2966 6.69802 14.1961 6.98891C14.016 7.5084 13.6524 8.16645 13.0775 8.99764C11.6229 11.1172 9.35094 13.6038 9.25398 13.7077L9.06697 13.9121L8.74142 14.2688L8.22885 13.7112C8.13188 13.6073 5.85996 11.1207 4.40535 9.0011C3.83391 8.16643 3.46681 7.51186 3.29019 6.99585C3.23131 6.82961 3.18283 6.65991 3.14127 6.49021C3.10663 6.3586 3.07893 6.22353 3.05815 6.08846C3.05122 6.05036 3.04429 6.00881 3.04083 5.97071C3.01659 5.79754 2.99581 5.62437 2.98888 5.45121H1.98796C0.910863 5.45121 0 6.32743 0 7.36299V19.3809C0 19.897 0.218188 20.3784 0.613007 20.742C0.983583 21.0814 1.48574 21.2788 1.98794 21.2788H4.47804C4.71355 22.6676 5.92568 23.7309 7.38029 23.7309C8.8349 23.7309 10.047 22.6676 10.2825 21.2788H17.3513V7.36354C17.3479 6.28992 16.5201 5.44834 15.4638 5.44834L15.4637 5.44775ZM7.37659 22.3421C6.51772 22.3421 5.81812 21.6425 5.81812 20.7836V20.7663C5.82851 19.9178 6.5281 19.2251 7.37659 19.2251C8.22507 19.2251 8.92466 19.9178 8.93505 20.7663V20.7836C8.93505 21.6425 8.23545 22.3421 7.37659 22.3421Z" fill="white"/>
<path d="M22.6286 14.6184V13.2331H28.7275L24.5543 8.01392H18.7324V21.2782H20.8831C21.1186 22.667 22.3308 23.7302 23.7854 23.7302C25.24 23.7302 26.4521 22.6705 26.6876 21.2782H29.1223V14.6185L22.6286 14.6184ZM25.2642 21.2781C25.0564 21.8946 24.4745 22.3448 23.7853 22.3448C23.0996 22.3448 22.5143 21.8981 22.3065 21.2781C22.2545 21.1223 22.2268 20.956 22.2268 20.7829V20.7656V20.7586C22.2303 20.5751 22.2649 20.4019 22.3238 20.2391C22.5454 19.6504 23.1168 19.2244 23.7818 19.2244C24.4468 19.2244 25.0182 19.6469 25.2398 20.2391C25.3022 20.4019 25.3368 20.5751 25.3368 20.7586V20.7656V20.7829C25.3437 20.956 25.316 21.1223 25.2641 21.2781H25.2642Z" fill="white"/>
</svg>
